<?xml version="1.0" encoding="utf-8"?>
<!-- Generator: Adobe Illustrator 25.0.0, SVG Export Plug-In . SVG Version: 6.00 Build 0)  -->
<svg version="1.1" id="Laag_1" xmlns="http://www.w3.org/2000/svg" xmlns:xlink="http://www.w3.org/1999/xlink" x="0px" y="0px"
	 viewBox="0 0 156 156.3" style="enable-background:new 0 0 156 156.3;" xml:space="preserve">
<style type="text/css">
	.st0{display:none;fill:#FFFFFF;}
	.st1{fill:#F8BC93;}
	.st2{fill:#E9A487;}
	.st3{fill:#F2B798;}
	.st4{fill:#F7BC93;}
	.st5{opacity:0.5;fill:#F2B798;enable-background:new    ;}
	.st6{fill:#FFFFFF;}
	.st7{fill:#C2424E;}
	.st8{fill:#C6C6C5;}
	.st9{fill:#C7C7C7;}
	.st10{fill:#E5E5E5;}
	.st11{fill:#28599C;}
	.st12{fill:#D9D9D9;}
	.st13{fill:#EBA485;}
	.st14{opacity:0.3;fill:#EC6F81;enable-background:new    ;}
	.st15{fill:#9E5333;}
	.st16{fill:#B45D3B;}
	.st17{fill:#CE927A;}
	.st18{opacity:0.1;fill:#FFFFFF;enable-background:new    ;}
	.st19{fill:#C77C6C;}
	.st20{fill:#F09280;}
	.st21{fill:#F3A989;}
	.st22{fill:#77432A;}
	.st23{fill:#0096CD;}
	.st24{fill:#D8D8D7;}
	.st25{fill:#B73F6D;}
	.st26{fill:#875A41;}
	.st27{fill:#6D4937;}
	.st28{fill:#CA6DA7;}
	.st29{fill:#9B599E;}
	.st30{fill:#3F2A27;}
	.st31{fill:#351B17;}
	.st32{fill:#ECECEC;}
	.st33{fill:#443331;}
	.st34{fill:#F2D032;}
	.st35{font-family:'Montserrat-Bold';}
	.st36{font-size:140px;}
	.st37{fill:#161513;}
	.st38{fill:#2C2727;}
	.st39{fill:#252422;}
	.st40{fill:#232220;}
	.st41{fill:#E1DDDA;}
	.st42{fill:#DCD8D5;}
	.st43{fill:#D9D5D2;}
	.st44{fill:#313030;}
	.st45{fill:#949291;}
	.st46{fill:#4B4948;}
	.st47{fill:#1A1B19;}
	.st48{fill:#141311;}
	.st49{fill:#1F1D1A;}
	.st50{fill:#1D1F1D;}
	.st51{fill:#1C1C1A;}
	.st52{fill:#1B1814;}
	.st53{fill:#2F2D2D;}
	.st54{fill:#BCE5DF;}
	.st55{fill:#9DCED6;}
	.st56{fill:#E7ACAF;}
	.st57{fill:#881C1E;}
	.st58{fill:#F0ECEC;}
	.st59{fill:#F08620;}
	.st60{fill:#BDE7E1;}
	.st61{fill:#BBE4DE;}
	.st62{fill:#BDE6E0;}
</style>
<g>
	<g id="Laag_1_1_">
		<rect class="st0" width="156" height="156"/>
		<g>
			<g>
				
					<rect x="52.5" y="68.5" transform="matrix(0.9846 -0.1751 0.1751 0.9846 -11.2785 10.5061)" class="st1" width="2.9" height="1.4"/>
				<path class="st2" d="M55.3,68.6l-0.1-0.4l-2.8,0.5l0.1,0.8C53.5,69.5,54.4,69.2,55.3,68.6z"/>
			</g>
			<g>
				<g>
					<polygon class="st3" points="57,95 55,95.4 53.2,87.6 56,87 					"/>
					<polygon class="st4" points="57,95 55,95.4 53.2,87.6 56,87 					"/>
					<polygon class="st5" points="53.2,87.6 53.3,88.1 55.4,87.8 56.2,95.1 57,95 56,87 					"/>
				</g>
				<g>
					<path class="st6" d="M54.7,94l0.2,1.5c-0.1,0.5,0.2,0.9,0.6,1.1c0.1,0,0.2,0,0.4,0c0,0,1.5,0,1.2-1.5l-0.3-1.5L54.7,94z"/>
					<g>
						<g>
							<path class="st7" d="M56,94.3l-0.5,0.1c-0.3,0-0.5,0.2-0.6,0.5c-0.1,0.1-0.3,0.2-0.3,0.4l-0.4,1.7c0,0-0.2,1.6,2.3,1
								c0.7-0.1,1.2-0.8,1.1-1.5c0-0.1,0-0.1,0-0.2l-0.4-1.4c-0.1-0.2,0-0.2-0.3-0.2C56.6,94.2,56,94.3,56,94.3z"/>
							<path class="st6" d="M56.4,97.4c-1.4,0.3-2,0-2.2-0.4c0,0.4,0.3,1.3,2.3,0.8c0.7-0.1,1.2-0.8,1-1.5c0,0,0-0.1,0-0.1
								C57.4,96.8,57,97.3,56.4,97.4z"/>
						</g>
						<g>
							<g>
								<path class="st8" d="M54.9,96.3c-0.1,0.6,0.9,0.4,0.9,0.4c1-0.1,0.9-0.5,0.9-0.5l0-1.6c-0.2-0.4-0.8-0.3-0.8-0.3l-0.5,0.1
									c-0.3,0-0.5,0.2-0.6,0.5L54.9,96.3z"/>
							</g>
							<path class="st6" d="M56.4,97.4c-1.4,0.3-2,0-2.2-0.4c0,0.4,0.3,1.3,2.3,0.8c0.7-0.1,1.2-0.8,1-1.5c0,0,0-0.1,0-0.1
								C57.4,96.8,57,97.3,56.4,97.4z"/>
						</g>
						<g>
							<path class="st8" d="M55.1,95.2c0,0.1,0,0.1-0.1,0.1c-0.1,0-0.1,0-0.1-0.1l0,0c0-0.1,0-0.1,0.1-0.1
								C55,95.1,55.1,95.2,55.1,95.2z"/>
						</g>
						<g>
							<path class="st8" d="M55,95.6c0,0.1,0,0.1-0.1,0.1c-0.1,0-0.1,0-0.1-0.1c0-0.1,0-0.1,0.1-0.1C55,95.5,55,95.6,55,95.6z"/>
						</g>
						<g>
							<path class="st8" d="M55,96.1c0,0.1,0,0.1-0.1,0.1c-0.1,0-0.1,0-0.1-0.1c0,0,0,0,0,0c0-0.1,0-0.1,0.1-0.1
								C54.9,96,55,96,55,96.1z"/>
						</g>
						<g>
							<path class="st8" d="M56.9,94.9c0,0.1,0,0.1-0.1,0.1c-0.1,0-0.1,0-0.1-0.1c0-0.1,0-0.1,0.1-0.1
								C56.8,94.8,56.9,94.8,56.9,94.9C56.9,94.9,56.9,94.9,56.9,94.9z"/>
						</g>
						<g>
							<path class="st8" d="M56.9,95.3c0,0.1,0,0.1-0.1,0.1c-0.1,0-0.1,0-0.1-0.1c0-0.1,0-0.1,0.1-0.1
								C56.8,95.2,56.9,95.2,56.9,95.3z"/>
						</g>
						<g>
							<path class="st8" d="M56.9,95.8c0,0.1,0,0.1-0.1,0.1c-0.1,0-0.1,0-0.1-0.1c0-0.1,0-0.1,0.1-0.1c0,0,0,0,0,0
								C56.8,95.7,56.9,95.8,56.9,95.8C56.9,95.8,56.9,95.8,56.9,95.8z"/>
						</g>
						<path class="st8" d="M55,95.2"/>
						<path class="st9" d="M54.9,95.7C54.9,95.7,54.9,95.7,54.9,95.7c-0.1,0-0.1-0.1-0.1-0.1c0.6-0.4,1.2-0.6,1.8-0.8l0,0
							c0,0,0.1,0,0.1,0.1c0,0,0,0.1-0.1,0.1C56.1,95.1,55.5,95.4,54.9,95.7C55,95.7,55,95.7,54.9,95.7z"/>
						<path class="st9" d="M54.9,96.2C54.9,96.2,54.9,96.2,54.9,96.2c-0.1,0-0.1-0.1-0.1-0.1c0,0,0,0,0,0c0.6-0.4,1.2-0.7,1.9-0.8
							c0,0,0.1,0,0.1,0.1c0,0,0,0.1-0.1,0.1C56.1,95.6,55.5,95.8,54.9,96.2C54.9,96.2,54.9,96.2,54.9,96.2z"/>
						<path class="st6" d="M55,95.3C54.9,95.3,54.9,95.3,55,95.3c-0.1-0.1-0.1-0.1,0-0.1c0,0,0,0,0,0c0.6-0.3,1.2-0.4,1.9-0.3
							c0,0,0.1,0,0.1,0.1c0,0,0,0.1-0.1,0.1c0,0,0,0,0,0C56.2,94.9,55.6,95.1,55,95.3C55,95.3,55,95.3,55,95.3z"/>
						<path class="st10" d="M56.7,95.4C56.7,95.4,56.7,95.4,56.7,95.4c-0.6-0.2-1.2-0.2-1.7-0.1c0,0-0.1,0-0.1-0.1c0,0,0,0,0,0
							c0,0,0-0.1,0-0.1c0,0,0,0,0,0c0.6-0.1,1.2-0.1,1.8,0.1C56.8,95.3,56.8,95.3,56.7,95.4C56.8,95.4,56.8,95.4,56.7,95.4
							C56.8,95.4,56.8,95.4,56.7,95.4z"/>
						<path class="st10" d="M56.7,95.9C56.7,95.9,56.7,95.9,56.7,95.9c-0.6-0.2-1.2-0.2-1.7-0.1c0,0-0.1,0-0.1-0.1c0,0,0,0,0,0
							c0,0,0-0.1,0.1-0.1c0,0,0,0,0,0c0.6-0.1,1.2,0,1.8,0.2C56.7,95.8,56.8,95.8,56.7,95.9C56.7,95.9,56.7,95.9,56.7,95.9z"/>
						<path class="st6" d="M54.9,95.7C54.9,95.7,54.9,95.7,54.9,95.7c-0.1-0.1-0.1-0.1,0-0.1c0.6-0.3,1.2-0.4,1.9-0.3
							c0,0,0.1,0,0.1,0.1c0,0,0,0.1-0.1,0.1c0,0,0,0,0,0C56.1,95.4,55.5,95.5,54.9,95.7C55,95.7,55,95.7,54.9,95.7z"/>
						<path class="st6" d="M56.7,95.9C56.7,95.9,56.7,95.9,56.7,95.9c-0.6-0.1-1.2,0-1.8,0.3c0,0-0.1,0-0.1,0c0,0,0-0.1,0-0.1
							c0.6-0.3,1.2-0.4,1.9-0.3C56.8,95.8,56.8,95.8,56.7,95.9C56.8,95.9,56.8,95.9,56.7,95.9L56.7,95.9z"/>
						<path class="st6" d="M55.8,95C55.8,95,55.8,95,55.8,95L55.8,95c-0.3-0.2-0.5-0.3-0.4-0.5c0-0.1,0-0.1,0.1-0.1
							c0.1,0,0.1,0,0.2,0c0.1,0,0.1,0.1,0.1,0.2c0.1-0.2,0.1-0.3,0.3-0.3c0.1,0,0.1,0,0.1,0c0,0,0.1,0.1,0.1,0.1
							C56.3,94.6,56.1,94.8,55.8,95C55.8,95,55.8,95,55.8,95z M56.1,94.4c-0.1,0-0.2,0.2-0.2,0.4C56.1,94.6,56.1,94.5,56.1,94.4
							C56.1,94.5,56.1,94.5,56.1,94.4C56.1,94.4,56.1,94.4,56.1,94.4z M55.5,94.5L55.5,94.5C55.5,94.6,55.5,94.6,55.5,94.5
							c0,0,0,0.1,0.2,0.3C55.7,94.7,55.7,94.6,55.5,94.5C55.6,94.5,55.6,94.5,55.5,94.5z"/>
						<g>
							<path class="st6" d="M54.7,96.1c0,0,0,0.2,0,0.5c0,0,0,0.1,0,0.1c0,0,0,0.1,0,0.1c0,0.1,0,0.1,0.1,0.2c0,0,0.1,0,0.1,0.1
								l0.1,0c0.1,0,0.2,0,0.3,0.1c0.1,0,0.2,0,0.3,0s0.2,0,0.3,0s0.2,0,0.2,0s0.1,0,0.2,0c0.1,0,0.2,0,0.3,0l0.1,0l-0.1,0.1
								l-0.1,0.1c-0.1,0-0.1,0.1-0.2,0.1c-0.1,0-0.1,0-0.2,0.1s-0.2,0-0.3,0c-0.2,0-0.4,0-0.6,0c-0.1,0-0.2,0-0.3-0.1
								c-0.1,0-0.1,0-0.1-0.1c0,0-0.1-0.1-0.1-0.1c-0.1-0.1-0.1-0.2-0.1-0.3c0,0,0-0.1,0-0.1c0,0,0-0.1,0-0.1
								C54.6,96.4,54.6,96.2,54.7,96.1z"/>
						</g>
					</g>
				</g>
				<g>
					<polygon class="st3" points="59.9,94.5 61.9,94.1 61,86.2 58.1,86.7 					"/>
					<polygon class="st4" points="59.9,94.5 61.9,94.1 61,86.2 58.1,86.7 					"/>
					<polygon class="st5" points="61,86.2 61.1,86.7 59,87.1 60.7,94.3 59.9,94.5 58.1,86.7 					"/>
				</g>
				<g>
					<path class="st6" d="M61.8,92.7l-2.2,0.4l0.3,1.5c0,0.6,0.6,1.1,1.2,1.1c0.1,0,0.3,0,0.4-0.1c0.5-0.1,0.8-0.5,0.7-1
						c0-0.1-0.1-0.2-0.1-0.3L61.8,92.7z"/>
					<g>
						<g>
							<path class="st7" d="M60,94c-0.2,0.1-0.2,0.1-0.2,0.3l0.1,1.5c0,0.7,0.6,1.3,1.4,1.2c0.1,0,0.1,0,0.2,0
								c2.5-0.3,1.8-1.7,1.8-1.7l-1-1.4c-0.1-0.1-0.2-0.2-0.4-0.2c-0.2-0.2-0.5-0.3-0.7-0.2l-0.5,0.1C60.6,93.5,60,93.6,60,94z"/>
							<path class="st6" d="M61.3,96.5c1.4-0.2,1.8-0.7,1.9-1.1c0.1,0.4,0.2,1.3-1.8,1.6c-0.7,0.1-1.4-0.3-1.5-1.1c0,0,0-0.1,0-0.1
								C60.2,96.4,60.8,96.6,61.3,96.5z"/>
						</g>
						<g>
							<g>
								<path class="st8" d="M61.8,93.6c-0.2-0.2-0.5-0.3-0.7-0.2l-0.5,0.1c0,0-0.6,0.1-0.7,0.5l0.6,1.5c0,0,0.1,0.4,1.1,0.2
									c0,0,1-0.2,0.8-0.7L61.8,93.6z"/>
							</g>
							<path class="st6" d="M61.3,96.5c1.4-0.2,1.8-0.7,1.9-1.1c0.1,0.4,0.2,1.3-1.8,1.6c-0.7,0.1-1.4-0.3-1.5-1.1c0,0,0-0.1,0-0.1
								C60.2,96.4,60.8,96.6,61.3,96.5z"/>
						</g>
						<g>
							<path class="st8" d="M61.9,94c0,0.1,0.1,0.1,0.1,0.1c0.1,0,0.1-0.1,0.1-0.1c0-0.1-0.1-0.1-0.1-0.1C61.9,93.9,61.8,94,61.9,94
								z"/>
						</g>
						<g>
							<path class="st8" d="M62,94.4c0,0.1,0.1,0.1,0.1,0.1c0.1,0,0.1-0.1,0.1-0.1l0,0c0-0.1-0.1-0.1-0.1-0.1
								C62.1,94.3,62,94.3,62,94.4C62,94.4,62,94.4,62,94.4z"/>
						</g>
						<g>
							<path class="st8" d="M62.2,94.8c0,0.1,0.1,0.1,0.1,0.1c0.1,0,0.1-0.1,0.1-0.1c0-0.1-0.1-0.1-0.1-0.1
								C62.3,94.7,62.2,94.8,62.2,94.8z"/>
						</g>
						<g>
							<path class="st8" d="M60,94.3c0,0.1,0.1,0.1,0.1,0.1c0,0,0,0,0,0c0.1,0,0.1-0.1,0.1-0.1s-0.1-0.1-0.1-0.1
								C60.1,94.2,60,94.3,60,94.3z"/>
						</g>
						<g>
							<path class="st8" d="M60.2,94.7c0,0.1,0.1,0.1,0.1,0.1c0.1,0,0.1-0.1,0.1-0.1s-0.1-0.1-0.1-0.1
								C60.2,94.6,60.2,94.7,60.2,94.7z"/>
						</g>
						<g>
							<path class="st8" d="M60.4,95.2c0,0.1,0.1,0.1,0.1,0.1c0.1,0,0.1-0.1,0.1-0.1c0-0.1-0.1-0.1-0.1-0.1
								C60.4,95.1,60.4,95.2,60.4,95.2z"/>
						</g>
						<path class="st8" d="M62,94"/>
						<path class="st9" d="M62.2,94.4C62.2,94.4,62.2,94.4,62.2,94.4c0.1-0.1,0.1-0.1,0-0.1c-0.6-0.2-1.3-0.2-2-0.1l0,0
							c0,0-0.1,0-0.1,0.1c0,0,0,0.1,0.1,0.1C60.8,94.3,61.5,94.3,62.2,94.4C62.1,94.4,62.1,94.4,62.2,94.4z"/>
						<path class="st9" d="M62.4,94.9C62.4,94.9,62.4,94.9,62.4,94.9c0.1-0.1,0.1-0.1,0-0.1c-0.7-0.2-1.3-0.2-2-0.1
							c0,0-0.1,0-0.1,0.1c0,0,0,0.1,0.1,0.1C61,94.7,61.7,94.7,62.4,94.9C62.3,94.9,62.3,94.9,62.4,94.9z"/>
						<path class="st6" d="M62,94.1C62,94.1,62,94,62,94.1c0.1-0.1,0-0.1,0-0.1c-0.6-0.1-1.3,0.1-1.9,0.3c0,0-0.1,0.1,0,0.1
							c0,0,0.1,0.1,0.1,0c0,0,0,0,0,0C60.7,94.1,61.4,94,62,94.1C62,94.1,62,94.1,62,94.1z"/>
						<path class="st10" d="M60.4,94.8C60.4,94.8,60.4,94.8,60.4,94.8c0.5-0.4,1-0.6,1.6-0.7c0,0,0.1,0,0.1-0.1c0,0,0,0,0,0
							c0,0,0-0.1-0.1-0.1c0,0,0,0,0,0c-0.6,0.1-1.1,0.4-1.6,0.7C60.3,94.7,60.3,94.7,60.4,94.8C60.3,94.8,60.3,94.8,60.4,94.8
							L60.4,94.8z"/>
						<path class="st10" d="M60.6,95.2C60.6,95.2,60.6,95.2,60.6,95.2c0.5-0.4,1-0.6,1.6-0.7c0,0,0.1,0,0-0.1c0,0,0-0.1-0.1-0.1
							c0,0,0,0,0,0c-0.6,0.1-1.1,0.4-1.6,0.8C60.5,95.1,60.5,95.1,60.6,95.2C60.5,95.2,60.5,95.2,60.6,95.2
							C60.5,95.2,60.5,95.2,60.6,95.2z"/>
						<path class="st6" d="M62.2,94.5C62.2,94.4,62.2,94.4,62.2,94.5c0.1-0.1,0-0.1,0-0.1c-0.6-0.1-1.3,0.1-1.9,0.3c0,0,0,0.1,0,0.1
							c0,0,0.1,0,0.1,0C60.9,94.5,61.5,94.4,62.2,94.5C62.1,94.5,62.2,94.5,62.2,94.5z"/>
						<path class="st6" d="M60.5,95.2C60.5,95.2,60.6,95.2,60.5,95.2c0.6-0.3,1.2-0.4,1.8-0.4c0,0,0.1,0,0.1-0.1c0,0,0-0.1-0.1-0.1
							c0,0,0,0,0,0c-0.6,0-1.3,0.1-1.9,0.4C60.5,95.1,60.4,95.1,60.5,95.2C60.5,95.2,60.5,95.2,60.5,95.2z"/>
						<path class="st6" d="M61.1,94.1c-0.4-0.1-0.5-0.3-0.6-0.4c0,0,0-0.1,0-0.1c0,0,0.1-0.1,0.1-0.1c0.1,0,0.2,0.1,0.4,0.2
							c0-0.1,0-0.1,0.1-0.2c0-0.1,0.1-0.1,0.2-0.1c0.1,0,0.1,0,0.1,0.1C61.4,93.6,61.3,93.8,61.1,94.1L61.1,94.1
							C61.1,94.1,61.1,94.1,61.1,94.1C61.1,94.1,61.1,94.1,61.1,94.1z M60.6,93.6C60.6,93.6,60.6,93.7,60.6,93.6
							c0,0.1,0.1,0.2,0.4,0.3C60.9,93.8,60.7,93.6,60.6,93.6C60.6,93.6,60.6,93.6,60.6,93.6z M61.1,93.6c0,0.1-0.1,0.2,0,0.3
							C61.3,93.6,61.2,93.6,61.1,93.6C61.2,93.5,61.2,93.5,61.1,93.6C61.2,93.5,61.2,93.5,61.1,93.6C61.2,93.5,61.2,93.6,61.1,93.6z
							"/>
						<g>
							<path class="st6" d="M62.5,94.7c0,0.1,0.1,0.3,0.2,0.4l0,0.1c0,0,0,0.1,0,0.1c0,0.1,0,0.1,0,0.2c0,0,0,0.1,0,0.1l-0.1,0.1
								c-0.1,0.1-0.1,0.1-0.2,0.1c-0.1,0-0.2,0.1-0.2,0.1S62,96,62,96s-0.2,0.1-0.2,0.1s-0.1,0-0.2,0.1c-0.1,0-0.2,0.1-0.3,0.1
								l-0.1,0l0.1,0l0.1,0c0.1,0,0.1,0,0.2,0c0.1,0,0.1,0,0.2,0s0.2,0,0.3-0.1c0.2-0.1,0.4-0.1,0.5-0.2c0.1,0,0.2-0.1,0.2-0.2
								c0,0,0.1-0.1,0.1-0.1c0,0,0.1-0.1,0.1-0.2c0-0.1,0-0.2,0-0.3c0,0,0-0.1-0.1-0.1c0,0,0-0.1-0.1-0.1
								C62.7,94.8,62.5,94.7,62.5,94.7z"/>
						</g>
					</g>
				</g>
			</g>
			<g>
				<path class="st11" d="M57.2,85.4l0.5,2.6c1.4,0.3,2.9,0,4.2-0.7l-1.4-7.6l-9.2,1.6l1.4,7.6c1.4,0.3,2.9,0,4.2-0.7l-0.5-2.6
					L57.2,85.4z"/>
				<g>
					<path class="st12" d="M58.8,84.2c-0.6,1.2-1.2,1.2-0.7,3.8c-0.1,0-0.3,0-0.4-0.1l-0.5-2.6l-0.9,0.2l0.5,2.6
						c-0.1,0.1-0.2,0.2-0.4,0.2c0-1.3-0.7-2.6-1.8-3.4C56.1,85.2,57.5,85,58.8,84.2"/>
					<path class="st12" d="M59.2,79.9c0.8,1.6,1.4,3.4,1.7,5.2c0.3,0.8,0.3,1.7,0,2.5c0,0.1-0.1,0.1-0.1,0.2
						c0.4-0.1,0.7-0.3,1.1-0.5l-1.4-7.6L59.2,79.9z"/>
					<path class="st12" d="M53.6,88.7C53,88.3,53,87,52.9,86.4c-0.3-1.8-0.8-3.8,0.1-5.5l-1.6,0.3l1.4,7.6c0.5,0.1,1,0.1,1.5,0.1
						C53.9,88.9,53.7,88.8,53.6,88.7z"/>
				</g>
			</g>
			<g>
				<path class="st4" d="M50.7,82.9c-1.1-3-1-6.2,0.3-9.1c0,0-0.4-0.7-1-0.4c0,0-3.1,5.1-0.2,9.9C49.7,83.3,50.5,84.1,50.7,82.9z"/>
				<path class="st4" d="M50.2,85.5c-0.4-0.4-0.6-0.8-0.8-1.3c-0.1-0.4-0.1-0.8,0.1-1.1c0.2-0.4,0.7-0.6,1.2-0.5
					c0.2,0.1,0.3,0.3,0.4,0.4l0,0c0.1,0.2,0.3,0.3,0.5,0.5c0.3,0.2,0.2,0.5,0.2,0.5c-0.1,0.1-0.2,0.1-0.3,0.1c0,0,0,0,0,0
					c-0.1-0.1-0.3-0.2-0.4-0.3c-0.2-0.1-0.2,0.1-0.2,0.1c0.2,0.4,0.4,0.7,0.7,1c0.1,0.1,0.1,0.2,0,0.3c0,0-0.1,0.2-0.5-0.3
					c-0.2-0.3-0.4-0.6-0.6-0.9c0.2,0.3,0.3,0.7,0.6,0.9c0.3,0.2,0,0.4,0,0.4c-0.3,0.1-0.7-0.5-0.7-0.5c-0.3-0.5-0.5-0.7-0.5-0.7
					l0.5,0.9c0,0,0.2,0.3,0.1,0.4C50.4,85.5,50.3,85.6,50.2,85.5z"/>
			</g>
			<g>
				<path class="st4" d="M61.5,81c0-3.2-1.2-6.2-3.4-8.5c0,0,0.2-0.8,0.8-0.7c0,0,4.6,3.7,3.7,9.2C62.6,81,62.1,82,61.5,81z"/>
				<path class="st4" d="M62.9,83.2c0.2-0.5,0.3-1,0.3-1.5c0-0.4-0.2-0.8-0.4-1c-0.4-0.3-0.9-0.3-1.3,0c-0.1,0.2-0.2,0.4-0.3,0.6
					l0,0c-0.1,0.2-0.2,0.4-0.3,0.6c-0.2,0.3,0,0.5,0,0.5c0.1,0.1,0.3,0.1,0.4,0c0,0,0,0,0,0c0.1-0.1,0.2-0.3,0.3-0.4
					c0.2-0.2,0.2,0,0.2,0c-0.1,0.4-0.2,0.8-0.3,1.2c0,0.1,0,0.3,0.1,0.3c0,0,0.2,0.1,0.4-0.4c0.1-0.3,0.2-0.7,0.2-1
					c0,0.4-0.1,0.7-0.2,1.1c-0.2,0.3,0.1,0.4,0.1,0.4c0.3,0,0.5-0.7,0.5-0.7c0.1-0.6,0.2-0.9,0.2-0.9l-0.2,1c0,0-0.1,0.3,0.1,0.4
					C62.6,83.3,62.8,83.4,62.9,83.2z"/>
			</g>
			<g>
				<path class="st4" d="M61.8,58.9c0.8,4.6-2.7,9.1-7.9,10s-10.1-2.1-10.9-6.7s2.7-9.1,7.9-10S61,54.3,61.8,58.9z"/>
				<g>
					<g>
						<path class="st4" d="M42,64.1c0.3,0.6,1,0.8,1.5,0.5c0.6-0.3,0.8-1,0.5-1.5c-0.2-0.5-0.8-0.7-1.3-0.6
							C42.1,62.8,41.8,63.5,42,64.1z"/>
						<path class="st2" d="M42.4,63c0.1-0.1,0.2-0.1,0.3-0.1c0.4-0.1,0.8,0.6,0.4,0.7c-0.1,0.1-0.1,0.3,0,0.3
							c0.2,0.1,0.4,0.4,0.4,0.6c0,0.1-0.1,0.2-0.3,0.3c-0.1,0-0.1,0-0.1-0.1c0.1,0,0.1-0.1,0.1-0.2l0,0c0,0,0,0,0,0c0,0,0-0.1,0-0.1
							c-0.1,0.1-0.2,0.1-0.3,0c-0.1-0.1-0.1-0.3-0.1-0.4c0-0.1-0.1-0.1-0.1-0.2c-0.2-0.3,0.1-0.4,0.1-0.4c0,0,0.1,0,0.1,0
							c0.2-0.1-0.1-0.4-0.2-0.4c-0.1,0-0.3,0-0.3,0.1c-0.1,0.1-0.1,0.3-0.1,0.4c0,0.2,0.1,0.3,0.2,0.4c0,0.1,0.1,0.2,0.2,0.2
							s0,0.1-0.1,0.1c-0.2-0.2-0.3-0.5-0.4-0.7C42.2,63.4,42.2,63.2,42.4,63z"/>
					</g>
					<g>
						<path class="st4" d="M63.3,60.4c-0.1,0.6-0.6,1.1-1.3,1c-0.6-0.1-1.1-0.6-1-1.3c0.1-0.5,0.5-1,1-1
							C62.7,59.1,63.2,59.7,63.3,60.4z"/>
						<path class="st2" d="M62.5,59.5c-0.1,0-0.2,0-0.3,0c-0.4,0.1-0.6,0.8-0.1,0.8c0.1,0.1,0.1,0.2,0.1,0.3C62,60.8,62,61,62,61.3
							c0.1,0.1,0.2,0.2,0.3,0.2c0.1,0,0.1-0.1,0-0.1c-0.1,0-0.1-0.1-0.2-0.1l0,0l0,0c0,0,0-0.1,0-0.1c0.1,0.1,0.2,0,0.3-0.1
							c0.1-0.1,0-0.3,0-0.4c0-0.1,0-0.2,0-0.2c0.1-0.4-0.2-0.3-0.2-0.3c0,0-0.1,0-0.1,0c-0.2-0.1-0.1-0.4,0-0.4
							c0.1-0.1,0.2-0.1,0.4,0c0.1,0.1,0.2,0.2,0.2,0.4c0,0.2,0,0.3,0,0.5c0,0.1,0,0.2-0.1,0.3s0.1,0.1,0.1,0
							c0.1-0.3,0.1-0.5,0.1-0.8C62.9,59.8,62.7,59.6,62.5,59.5z"/>
					</g>
				</g>
				<path class="st13" d="M53.6,63.5c-0.1,0-0.2,0-0.2-0.1c0,0,0,0,0,0c-0.1-0.3-0.3-0.5-0.6-0.4c-0.3,0.1-0.5,0.3-0.4,0.6
					c0,0.1,0,0.2-0.1,0.2c-0.1,0-0.2,0-0.2-0.1c0,0,0,0,0,0c-0.1-0.5,0.2-0.9,0.7-1c0.5-0.1,0.9,0.2,1,0.7l0,0
					C53.7,63.4,53.6,63.4,53.6,63.5C53.6,63.5,53.6,63.5,53.6,63.5z"/>
				<g>
					<path class="st14" d="M46.4,64.5c0.1,0.5,0.8,0.7,1.5,0.6s1.3-0.6,1.2-1.1s-0.8-0.7-1.5-0.6S46.3,64,46.4,64.5z"/>
					<path class="st14" d="M56.6,62.7c0.1,0.5,0.8,0.7,1.5,0.6s1.3-0.6,1.2-1.1s-0.8-0.7-1.5-0.6S56.5,62.2,56.6,62.7z"/>
				</g>
				<path class="st15" d="M43.5,50c-3.2,1.2-2.9,6.5-2.9,6.5c0.1,2.2,0.6,4.4,1.6,6.3c0,0,0-0.2,0.7-0.3c0,0,0.1-1.1,0.1-1.2
					c0-1.6,0.8-3,2-4c2.4-2.4,1.2-3.1,1.2-3.1c0.1,0.3,0.9,0.6,1.1,0.6c1.2-0.1,2.4-0.3,3.6-0.6c1.9-0.3,4-0.5,5.8,0.4
					c1.5,0.8,2.9,1.9,4,3.2c0.1,0.1,0.9,1.3,1,1.2c0.3-0.1,0.5,0,0.8,0.1c0,0-0.1-9.2-5.2-10.9C57.4,48.4,48.4,45.5,43.5,50"/>
				<path class="st15" d="M46.5,54.5c-1-1.5-2-3-3.1-4.4c-3,1.3-2.7,6.4-2.7,6.4c0.1,2.2,0.6,4.4,1.6,6.3c0,0,0-0.2,0.7-0.3
					c0,0,0.1-1.1,0.1-1.2c0-1.6,0.8-3,2-4C46.8,55.6,46.7,54.8,46.5,54.5L46.5,54.5z"/>
				<g>
					<path class="st16" d="M46.9,59.6c0.2-0.3,0.6-0.5,0.9-0.6c0.2-0.1,0.2-0.3,0.2-0.4c0,0,0,0,0,0c-0.1-0.2-0.3-0.2-0.4-0.2
						c-0.5,0.1-0.9,0.4-1.2,0.8C46.1,59.6,46.6,59.9,46.9,59.6L46.9,59.6z"/>
					<path class="st16" d="M57.1,57.8c-0.3-0.2-0.7-0.3-1.1-0.3c-0.2,0-0.3-0.2-0.3-0.4c0,0,0,0,0,0c0-0.2,0.2-0.3,0.4-0.3
						c0.5,0,1,0.1,1.4,0.4C57.9,57.5,57.5,58,57.1,57.8L57.1,57.8z"/>
				</g>
				<g>
					<path class="st17" d="M48.6,63.4c-0.1,0-0.1,0.1-0.1,0.1s0.1,0.1,0.1,0.1l0,0c0.1,0,0.1-0.1,0.1-0.1S48.7,63.4,48.6,63.4
						L48.6,63.4z"/>
					<path class="st17" d="M47.5,63.7c-0.1,0-0.1,0.1-0.1,0.1c0,0.1,0.1,0.1,0.1,0.1c0.1,0,0.1-0.1,0.1-0.1
						C47.6,63.7,47.6,63.7,47.5,63.7z"/>
					<path class="st17" d="M48.3,64c-0.1,0-0.1,0.1-0.1,0.1c0,0.1,0.1,0.1,0.1,0.1l0,0c0.1,0,0.1-0.1,0.1-0.1
						C48.4,64.1,48.3,64,48.3,64z"/>
					<path class="st17" d="M49.3,63.7c-0.1,0-0.1,0.1-0.1,0.1s0.1,0.1,0.1,0.1s0.1-0.1,0.1-0.1S49.4,63.7,49.3,63.7z"/>
					<path class="st17" d="M47.4,64.4c-0.1,0-0.1,0.1-0.1,0.1c0,0.1,0.1,0.1,0.1,0.1c0.1,0,0.1-0.1,0.1-0.1
						C47.5,64.4,47.5,64.4,47.4,64.4z"/>
					<path class="st17" d="M48.7,64.6c-0.1,0-0.1,0.1-0.1,0.1c0,0.1,0.1,0.1,0.1,0.1s0.1-0.1,0.1-0.1C48.8,64.7,48.8,64.6,48.7,64.6
						z"/>
					<path class="st17" d="M57.5,61.8c-0.1,0-0.1,0.1-0.1,0.1c0,0.1,0.1,0.1,0.1,0.1c0.1,0,0.1-0.1,0.1-0.1
						C57.7,61.8,57.6,61.8,57.5,61.8z"/>
					<path class="st17" d="M56.4,62.1c-0.1,0-0.1,0.1-0.1,0.1s0.1,0.1,0.1,0.1s0.1-0.1,0.1-0.1S56.5,62.1,56.4,62.1z"/>
					<path class="st17" d="M57.2,62.5c-0.1,0-0.1,0.1-0.1,0.1c0,0.1,0.1,0.1,0.1,0.1c0.1,0,0.1-0.1,0.1-0.1
						C57.3,62.5,57.3,62.4,57.2,62.5z"/>
					<path class="st17" d="M58.2,62.1c-0.1,0-0.1,0.1-0.1,0.1s0.1,0.1,0.1,0.1s0.1-0.1,0.1-0.1S58.3,62.1,58.2,62.1z"/>
					<path class="st17" d="M56.4,62.8c-0.1,0-0.1,0.1-0.1,0.1c0,0.1,0.1,0.1,0.1,0.1c0.1,0,0.1-0.1,0.1-0.1
						C56.5,62.8,56.4,62.8,56.4,62.8z"/>
					<path class="st17" d="M57.6,63.1c-0.1,0-0.1,0.1-0.1,0.1c0,0.1,0.1,0.1,0.1,0.1c0.1,0,0.1-0.1,0.1-0.1
						C57.7,63.1,57.7,63.1,57.6,63.1z"/>
				</g>
				<path class="st18" d="M45.9,54.8c0,0-3.3,3-3.1,5c-0.1-0.8,0-1.6,0.2-2.4c-0.6,0.4-1,1.1-1,1.9c0,0-1.2-2.4,2.4-5.4
					c-0.6,0.9-1,1.9-1.2,3C43.8,55.8,44.8,55.1,45.9,54.8z"/>
				<g>
					<g>
						<g>
							<path class="st19" d="M55.2,64.6L51,65.3c0.5,0.8,1.4,1.3,2.3,1.1C54.3,66.3,55.1,65.5,55.2,64.6z"/>
							<path class="st20" d="M54.4,65.4c-0.8-0.5-1.8-0.3-2.3,0.4c-0.1,0.1-0.1,0.2-0.2,0.3c0.5,0.2,1,0.3,1.5,0.2
								c0.5-0.1,1-0.3,1.3-0.7C54.6,65.6,54.5,65.5,54.4,65.4z"/>
						</g>
						<path class="st21" d="M53.5,67.2c-0.2,0-0.4,0-0.5,0c-0.1,0-0.1-0.1-0.1-0.2c0-0.1,0.1-0.1,0.2-0.1c0.3,0.1,0.6,0,0.8-0.2
							c0.1,0,0.2,0,0.2,0s0,0.2,0,0.2C53.9,67.1,53.7,67.1,53.5,67.2z"/>
					</g>
					<path class="st6" d="M52.9,65l-1.1,0.2c0,0,0.3,0.5,1.2,0.4L52.9,65z"/>
					<path class="st6" d="M53.2,64.9l0.1,0.6c0.5-0.1,0.9-0.4,1.1-0.8L53.2,64.9z"/>
				</g>
				<g>
					<g>
						<path class="st6" d="M49.9,61.3c0.2,0.9-0.4,1.8-1.4,2s-1.8-0.4-2-1.4c-0.2-0.9,0.4-1.8,1.4-2c0,0,0,0,0,0
							C48.9,59.7,49.7,60.3,49.9,61.3z"/>
						<path class="st22" d="M49.6,61.3c0.1,0.6-0.4,1.1-1,1.2s-1.1-0.4-1.2-1c-0.1-0.6,0.3-1.1,0.9-1.2
							C48.9,60.3,49.5,60.7,49.6,61.3z"/>
						<path class="st13" d="M48.5,63.2L48.5,63.2c-0.1,0-0.2,0-0.2,0c-0.1,0-0.2,0-0.3,0c-0.1,0-0.2,0-0.3-0.1
							c-0.1,0-0.3-0.1-0.4-0.2c-0.1-0.1-0.3-0.2-0.4-0.3c-0.1-0.1-0.2-0.3-0.3-0.4c-0.1-0.2-0.1-0.3-0.2-0.5c0-0.2,0-0.3,0-0.5
							c0-0.2,0.1-0.3,0.1-0.5c0.1-0.3,0.3-0.5,0.6-0.7c0.2-0.1,0.4-0.2,0.6-0.2c0.1,0,0.1,0,0.2,0l0.1,0l-0.1,0c0,0-0.1,0-0.2,0.1
							c-0.1,0-0.2,0.1-0.2,0.1c-0.1,0.1-0.2,0.1-0.3,0.2c-0.1,0.1-0.2,0.2-0.3,0.3c-0.1,0.1-0.1,0.2-0.2,0.4
							c-0.1,0.1-0.1,0.3-0.1,0.4c0,0.2,0,0.3,0,0.5c0.1,0.3,0.2,0.6,0.4,0.8c0.1,0.1,0.2,0.2,0.3,0.3c0.1,0.1,0.2,0.1,0.3,0.2
							c0.1,0,0.2,0.1,0.3,0.1c0.1,0,0.2,0,0.3,0C48.4,63.2,48.4,63.2,48.5,63.2L48.5,63.2z"/>
					</g>
					<g>
						<path class="st6" d="M54.9,60.4c0.2,0.9,1,1.5,2,1.4c0.9-0.2,1.5-1,1.4-2c-0.2-0.9-1-1.5-2-1.4c0,0,0,0,0,0
							C55.3,58.6,54.7,59.5,54.9,60.4z"/>
						<path class="st22" d="M55.2,60.3c0.1,0.6,0.7,1,1.3,0.8c0.6-0.1,1-0.7,0.8-1.3c-0.1-0.6-0.7-0.9-1.3-0.8
							C55.4,59.1,55.1,59.7,55.2,60.3z"/>
						<path class="st13" d="M56.8,61.8L56.8,61.8c0.1,0,0.2-0.1,0.2-0.1c0.1,0,0.2-0.1,0.2-0.1c0.1-0.1,0.2-0.1,0.3-0.2
							c0.1-0.1,0.2-0.2,0.3-0.3c0.1-0.1,0.1-0.2,0.2-0.4c0.2-0.4,0.2-0.9-0.1-1.3c-0.1-0.1-0.2-0.3-0.2-0.4
							c-0.1-0.1-0.2-0.2-0.3-0.3c-0.1-0.1-0.2-0.1-0.3-0.2c-0.1,0-0.2-0.1-0.3-0.1c-0.1,0-0.2,0-0.3,0c-0.1,0-0.1,0-0.2,0h-0.1
							l0.1,0c0.1,0,0.1,0,0.2,0c0.1,0,0.2,0,0.3,0c0.4,0,0.8,0.2,1.1,0.5c0.1,0.1,0.2,0.3,0.3,0.4c0.2,0.3,0.2,0.7,0.2,1
							c0,0.2-0.1,0.3-0.1,0.5c-0.1,0.1-0.2,0.3-0.3,0.4c-0.1,0.1-0.2,0.2-0.3,0.3c-0.2,0.1-0.4,0.2-0.6,0.2
							C57,61.7,57,61.7,56.8,61.8L56.8,61.8z"/>
					</g>
				</g>
				<polygon class="st4" points="46.7,55.3 44.4,51.3 47.1,55 				"/>
				<path class="st16" d="M43.5,50l3,4.6c1.6,1.1,3.3,1.8,5.2,2.3l-2.2-2.2c0,0,4.8,4,13.6,1.9c0,0-1.3-6.5-3.9-8.7
					c-3.1-1-6.3-1.5-9.5-1.4C47.1,46.4,44.8,47.8,43.5,50z"/>
				<path class="st18" d="M49.4,48.9c0,0-3.4,0.2-4.2,1.5c0.3-0.5,0.8-1,1.3-1.4c-0.6,0-1.1,0.2-1.5,0.7c0,0,0.4-2,4-2.1
					c-0.8,0.2-1.5,0.6-2.1,1.2C47.7,48.5,48.6,48.5,49.4,48.9z"/>
				<path class="st18" d="M53.9,49.5c0,0,4.4,0.8,5.3,2.5c-0.4-0.7-0.9-1.4-1.5-2c0.8,0,1.5,0.4,1.9,1.1c0,0-0.2-2.7-5-3.2
					c1,0.4,1.9,1,2.6,1.8C56.2,49.2,55,49.1,53.9,49.5z"/>
				<path class="st18" d="M50.3,51.5c0,0,3.5,2.8,5.4,2.4c-0.8,0.2-1.6,0.3-2.4,0.2c0.5,0.6,1.3,0.8,2,0.7c0,0-2.2,1.6-5.7-1.7
					c1,0.5,2,0.8,3.1,0.8C51.5,53.4,50.7,52.6,50.3,51.5z"/>
			</g>
			<path class="st1" d="M58.7,70.2c-0.2-0.5-0.6-0.8-1.1-0.8l-2.6,0L54,69.5l-1.1,0.2l-2.4,0.9c-0.4,0.2-0.7,0.7-0.8,1.2
				c0.7,4.9,1,7.6,1.4,11.5c1.7,0.3,3.5,0.2,5.2-0.1c1.7-0.2,3.4-0.8,5-1.7C60.9,79.5,59.8,75.1,58.7,70.2z"/>
			<path class="st23" d="M55.6,69.3l2,0c0.5,0.1,0.9,0.4,1.1,0.8c0.9,3.8,1.4,6.1,2.6,11.3c-1.5,0.9-3.2,1.4-5,1.7
				c-1.7,0.4-3.5,0.4-5.2,0.1c-0.5-4.2-0.8-6.5-1.4-11.5c0-0.5,0.3-0.9,0.8-1.2l1.8-0.7c0,0,0.2,1.2,1.8,0.9
				C54.1,70.8,55.6,70.7,55.6,69.3z"/>
			<path class="st24" d="M61.1,80.6c-1.2,0.8-2.5,1.3-3.8,1.6c-1.8,0.4-4.8,1-5.4-1.1c-0.5-1.9-0.8-3.7-1-5.7l-0.6,0.1
				c0.3,2.7,0.6,4.7,0.9,7.7c1.7,0.3,3.5,0.2,5.2-0.1c1.7-0.2,3.4-0.8,5-1.7C61.2,81,61.2,81,61.1,80.6z"/>
			<path class="st6" d="M50.4,70.6c-1.2,0.4-2,1.5-2.1,2.8l-0.3,1.4c0.7,0.8,1.7,1.1,2.7,1C50.8,75.8,51.3,72.4,50.4,70.6z"/>
			<path class="st11" d="M50.4,70.6c-1.2,0.4-2,1.5-2.1,2.8l-0.3,1.4c0.7,0.8,1.7,1.1,2.7,1C50.8,75.8,51.3,72.4,50.4,70.6z"/>
			<path class="st8" d="M49.4,74.8c-0.4-0.7-0.5-1.5-0.2-2.3c0.2-0.8,0.6-1.4,1.3-1.9h0c0,0,0,0,0,0c-1.2,0.4-2,1.5-2.1,2.8
				l-0.3,1.4c0.7,0.8,1.7,1.1,2.7,1c0,0,0-0.1,0-0.4C50.3,75.5,49.8,75.2,49.4,74.8z"/>
			<path class="st11" d="M57.6,69.4c1.3,0,2.4,0.7,2.9,1.9l0.8,1.3c-0.4,1-1.2,1.7-2.2,1.8C59,74.3,57.3,71.3,57.6,69.4z"/>
			<path class="st8" d="M60,72.9c0.1-0.8-0.1-1.6-0.6-2.2c-0.4-0.7-1.1-1.1-1.8-1.3h0c0,0,0,0,0,0c1.3,0,2.4,0.7,2.9,1.9l0.8,1.3
				c-0.4,1-1.2,1.7-2.2,1.8c0,0-0.1-0.1-0.2-0.3C59.3,73.9,59.8,73.5,60,72.9z"/>
		</g>
		<g>
			<g>
				<g>
					<polygon class="st3" points="98.5,92.2 96.6,91.8 97.6,84 100.4,84.5 					"/>
					<polygon class="st4" points="98.5,92.2 96.6,91.8 97.6,84 100.4,84.5 					"/>
					<polygon class="st5" points="97.6,84 97.5,84.5 99.6,84.9 97.8,92 98.5,92.2 100.4,84.5 					"/>
				</g>
				<g>
					<path class="st6" d="M97.7,91.4c-0.4-0.1-1-0.1-1.3,0.2l-0.1,0.3c-0.3,0.4-0.2,0.9,0.2,1.2c0.1,0.1,0.2,0.1,0.3,0.1
						c0.6,0.3,1.2,0,1.5-0.5c0.1-0.1,0.1-0.3,0.1-0.4l0-0.1C98.5,91.8,98.2,91.5,97.7,91.4z"/>
					<g>
						<path class="st25" d="M97.1,94.6c0.7,0.1,1.4-0.3,1.5-1c0-0.1,0-0.1,0-0.2l0.1-1.5c0.1-0.6-1.1-0.9-1.1-0.9
							c-1-0.2-1.3,0.4-1.3,0.4l-1,1.4C95.3,92.9,94.6,94.3,97.1,94.6z M98.3,92.1c0,0.4-0.2,0.7-0.5,1c-0.4,0.2-1,0-1.3-0.2
							c-0.4-0.2-0.2-0.9,0.1-1.2c0,0,0.2-0.4,0.9-0.2C97.5,91.5,98.3,91.6,98.3,92.1z"/>
						<path class="st6" d="M97.2,94.2c-1.4-0.2-1.8-0.7-1.9-1.1c-0.1,0.3-0.2,1.3,1.8,1.6c0.7,0.1,1.4-0.3,1.5-1c0,0,0-0.1,0-0.1
							C98.3,94,97.7,94.3,97.2,94.2z"/>
					</g>
					<g>
						<path class="st6" d="M96,92.4c0,0.1-0.1,0.3-0.2,0.4l0,0.1c0,0,0,0.1,0,0.1c0,0.1,0,0.1,0,0.2c0,0,0,0.1,0,0.1l0.1,0.1
							c0.1,0.1,0.1,0.1,0.2,0.1c0.1,0,0.2,0.1,0.2,0.1s0.2,0.1,0.2,0.1s0.2,0.1,0.2,0.1s0.1,0,0.2,0.1c0.1,0,0.2,0.1,0.3,0.1l0.1,0
							l-0.1,0l-0.1,0c-0.1,0-0.1,0-0.2,0c-0.1,0-0.1,0-0.2,0s-0.2,0-0.2-0.1c-0.2-0.1-0.3-0.1-0.5-0.2c-0.1,0-0.2-0.1-0.2-0.2
							c0,0-0.1-0.1-0.1-0.1c0,0-0.1-0.1-0.1-0.1c0-0.1,0-0.2,0-0.3c0,0,0-0.1,0.1-0.1c0,0,0-0.1,0.1-0.1C95.9,92.5,96,92.4,96,92.4z
							"/>
					</g>
				</g>
				<g>
					<polygon class="st3" points="101.4,92.7 103.4,93.1 105.3,85.4 102.4,84.9 					"/>
					<polygon class="st4" points="101.4,92.7 103.4,93.1 105.3,85.4 102.4,84.9 					"/>
					<polygon class="st5" points="105.3,85.4 105.2,86 103.1,85.6 102.2,92.9 101.4,92.7 102.4,84.9 					"/>
				</g>
				<g>
					<path class="st6" d="M103.5,93c-0.2-0.3-0.6-0.6-1-0.7c-0.4-0.1-0.9,0-1.3,0.3l0,0.2c-0.3,1.5,1.2,1.4,1.2,1.4
						c0.5,0.1,0.9-0.2,1-0.7c0-0.1,0-0.2,0-0.3L103.5,93z"/>
					<g>
						<path class="st25" d="M104.1,94.6l-0.4-1.7c0,0,0-0.7-1-0.9c0,0-1.2-0.2-1.4,0.4l-0.4,1.4c-0.2,0.7,0.1,1.4,0.8,1.6
							c0.1,0,0.1,0,0.2,0C104.3,96.1,104.1,94.6,104.1,94.6z M102.6,92.4c0.7,0.1,0.8,0.5,0.8,0.5c0.1,0.4,0.1,1-0.4,1.1
							c-0.4,0.1-1,0.1-1.3-0.3c-0.2-0.3-0.2-0.7-0.1-1.1C101.8,92.3,102.6,92.4,102.6,92.4z"/>
						<path class="st6" d="M101.9,95.1c1.4,0.3,1.9,0,2.2-0.4c0,0.4-0.3,1.3-2.2,0.8c-0.7-0.1-1.1-0.8-1-1.5c0,0,0-0.1,0-0.1
							C101,94.5,101.4,95,101.9,95.1z"/>
					</g>
					<g>
						<path class="st6" d="M103.7,93.8c0,0.2,0,0.3,0,0.5c0,0,0,0.1,0,0.1c0,0,0,0.1,0,0.1c0,0.1,0,0.1-0.1,0.2c0,0-0.1,0-0.1,0.1
							l-0.1,0c-0.1,0-0.2,0-0.2,0.1c-0.1,0-0.2,0-0.3,0s-0.2,0-0.3,0s-0.2,0-0.2,0s-0.1,0-0.2,0c-0.1,0-0.2,0-0.3,0l-0.1,0l0.1,0.1
							l0.1,0.1c0.1,0,0.1,0.1,0.2,0.1c0.1,0,0.1,0,0.2,0.1s0.2,0,0.3,0c0.2,0,0.4,0,0.6,0c0.1,0,0.2,0,0.3-0.1c0,0,0.1,0,0.1-0.1
							c0,0,0.1-0.1,0.1-0.1c0.1-0.1,0.1-0.2,0.1-0.3c0,0,0-0.1,0-0.1c0,0,0-0.1,0-0.1C103.8,94,103.7,93.8,103.7,93.8z"/>
					</g>
				</g>
			</g>
			<path class="st11" d="M97.3,79l-0.8,7.1c1.1,0.8,2.4,1,3.6,0.7l0.9-2.6l0.9,0.2l0,2.8c1.1,0.8,2.5,1,3.8,0.7l1.5-6.9L97.3,79z"/>
			<g>
				
					<rect x="104" y="66" transform="matrix(0.1861 -0.9825 0.9825 0.1861 18.9212 157.7528)" class="st26" width="1.3" height="2.8"/>
				<path class="st27" d="M106.1,67.5l0.1-0.4l-2.8-0.5l-0.1,0.8C104.2,67.6,105.2,67.6,106.1,67.5z"/>
			</g>
			<g>
				<path class="st26" d="M96.9,78.8c0.1-3.1,1.3-6.1,3.4-8.3c0,0-0.2-0.8-0.8-0.7c0,0-4.6,3.6-3.7,9.1
					C95.9,78.9,96.3,79.8,96.9,78.8z"/>
				<path class="st4" d="M95.6,81c-0.2-0.5-0.3-1-0.3-1.5c0-0.4,0.2-0.7,0.4-1c0.4-0.3,0.9-0.3,1.3,0c0.1,0.2,0.2,0.4,0.3,0.6
					c0,0,0,0,0,0c0.1,0.2,0.2,0.4,0.3,0.6c0.2,0.3,0,0.5,0,0.5c-0.1,0.1-0.3,0.1-0.3-0.1c0,0,0,0,0,0c-0.1-0.1-0.2-0.3-0.3-0.4
					c-0.2-0.2-0.2,0-0.2,0c0.1,0.4,0.2,0.8,0.3,1.2c0,0.1,0,0.2-0.2,0.3c0,0-0.2,0.1-0.4-0.4c-0.1-0.3-0.2-0.7-0.2-1
					c0,0.4,0.1,0.7,0.2,1.1c0.2,0.3-0.1,0.4-0.1,0.4c-0.3,0-0.4-0.7-0.4-0.7c-0.1-0.6-0.2-0.8-0.2-0.8l0.2,1c0,0,0.1,0.3-0.1,0.4
					C95.8,81.1,95.7,81.2,95.6,81z"/>
			</g>
			<g>
				<path class="st26" d="M107.6,80.9c1.1-2.9,1-6.1-0.2-9c0,0,0.4-0.7,1-0.4c0,0,3,5,0.1,9.8C108.6,81.3,107.8,82,107.6,80.9z"/>
				<path class="st26" d="M108.1,83.4c0.4-0.3,0.6-0.8,0.8-1.3c0.1-0.4,0.1-0.8,0-1.1c-0.2-0.4-0.7-0.6-1.2-0.5
					c-0.2,0.1-0.3,0.3-0.4,0.4l0,0c-0.1,0.2-0.3,0.3-0.5,0.5c-0.3,0.2-0.2,0.4-0.2,0.4c0.1,0.1,0.2,0.2,0.3,0.1c0,0,0,0,0,0
					c0.1-0.1,0.3-0.2,0.4-0.3c0.2-0.1,0.2,0.1,0.2,0.1c-0.2,0.3-0.4,0.7-0.7,1c-0.1,0.1-0.1,0.2,0,0.3c0,0,0.1,0.2,0.5-0.2
					c0.2-0.3,0.4-0.5,0.6-0.8c-0.2,0.3-0.3,0.6-0.6,0.9c-0.3,0.2,0,0.4,0,0.4c0.3,0.1,0.6-0.5,0.6-0.5c0.3-0.5,0.5-0.7,0.5-0.7
					l-0.5,0.8c0,0-0.2,0.3-0.1,0.4C107.8,83.4,107.9,83.5,108.1,83.4z"/>
			</g>
			<path class="st26" d="M108.8,69.9c0-0.5-0.3-0.9-0.7-1.2l-2.4-0.9l-1-0.2l-1-0.2l-2.5,0c-0.5,0.1-0.9,0.4-1.1,0.8
				c-1.1,4.7-1.7,7.3-2.7,11.1c3.1,1.6,6.6,2.3,10,1.9C107.5,79.2,108.1,74.8,108.8,69.9z"/>
			<path class="st28" d="M106.2,68l1.9,0.8c0.4,0.2,0.7,0.7,0.7,1.2c-0.5,3.8-0.9,6.1-1.5,11.3c-3.5,0.4-6.9-0.3-10-1.9
				c1-4,1.6-6.2,2.7-11.1c0.2-0.4,0.6-0.7,1.1-0.8l1.9,0c0,0-0.2,1.2,1.4,1.5C105.1,69.2,105.9,68.8,106.2,68
				C106.2,68,106.2,68,106.2,68z"/>
			<path class="st29" d="M101,67.5c-1.2-0.1-2.4,0.7-2.9,1.8l-0.8,1.2c0.4,1,1.2,1.7,2.2,1.8C99.6,72.3,101.2,69.4,101,67.5z"/>
			<path class="st29" d="M108,68.8c1.2,0.4,2,1.5,2,2.7l0.3,1.4c-0.7,0.8-1.7,1.1-2.7,0.9C107.6,73.9,107.1,70.5,108,68.8z"/>
			<g>
				<path class="st30" d="M97.2,66.1c5.1-0.4,10.3,0.6,14.9,2.8l3.5-9.7l-18.3-3.5L97.2,66.1z"/>
				<polygon class="st31" points="96.3,57.5 95.1,66.8 97.2,66.1 99.1,56.1 				"/>
				<polygon class="st31" points="116.2,61.3 113.9,70.3 112.2,68.9 114,59 				"/>
				<path class="st26" d="M115.6,60.7c-0.9,4.5-5.7,7.4-10.8,6.4s-8.6-5.4-7.7-9.9s5.7-7.4,10.8-6.4S116.4,56.2,115.6,60.7z"/>
				<g>
					<g>
						<path class="st26" d="M95.6,58.6c0.1,0.6,0.6,1.1,1.2,1s1.1-0.6,1-1.2c0-0.5-0.5-0.9-1-1C96.1,57.4,95.6,57.9,95.6,58.6z"/>
						<path class="st27" d="M96.3,57.7c0.1,0,0.2,0,0.3,0c0.4,0.1,0.6,0.8,0.1,0.8c-0.1,0.1-0.1,0.2-0.1,0.3
							c0.1,0.2,0.2,0.4,0.1,0.7c-0.1,0.1-0.2,0.2-0.3,0.2c-0.1,0-0.1-0.1,0-0.1c0.1,0,0.1-0.1,0.2-0.1l0,0l0,0c0,0,0-0.1,0-0.1
							c-0.1,0.1-0.2,0-0.3-0.1c-0.1-0.1,0-0.2,0-0.4c0-0.1,0-0.2,0-0.2c-0.1-0.4,0.2-0.3,0.2-0.3c0,0,0.1,0,0.1,0
							c0.2-0.1,0.1-0.4,0-0.4c-0.1-0.1-0.2-0.1-0.4,0c-0.1,0.1-0.2,0.2-0.2,0.3c0,0.2,0,0.3,0,0.5c0,0.1,0,0.2,0.1,0.3
							s-0.1,0.1-0.1,0c-0.1-0.3-0.1-0.5-0.1-0.8C96,58,96.1,57.8,96.3,57.7z"/>
					</g>
					<g>
						<path class="st26" d="M116.4,62.6c-0.3,0.6-1,0.8-1.5,0.5c-0.6-0.3-0.8-1-0.5-1.5c0.2-0.5,0.8-0.7,1.3-0.6
							C116.3,61.2,116.6,61.9,116.4,62.6z"/>
						<path class="st27" d="M116.1,61.5c-0.1-0.1-0.2-0.1-0.2-0.1c-0.4-0.1-0.8,0.5-0.4,0.7c0.1,0.1,0,0.3-0.1,0.3
							c-0.2,0.1-0.4,0.3-0.4,0.6c0,0.1,0.1,0.2,0.3,0.3c0.1,0,0.1,0,0.1-0.1c-0.1,0-0.1-0.1-0.1-0.2l0,0c0,0,0,0,0,0
							c0,0,0-0.1,0-0.1c0.1,0.1,0.2,0.1,0.3,0c0.1-0.1,0.1-0.2,0.1-0.4c0-0.1,0.1-0.1,0.1-0.2c0.2-0.3-0.1-0.4-0.1-0.4
							c0,0-0.1,0-0.1,0c-0.2-0.1,0.1-0.4,0.2-0.4c0.1,0,0.3,0,0.3,0.1c0.1,0.1,0.1,0.3,0.1,0.4c0,0.2-0.1,0.3-0.2,0.4
							c0,0.1-0.1,0.2-0.2,0.2s0,0.1,0.1,0.1c0.2-0.2,0.3-0.5,0.4-0.7C116.3,61.9,116.2,61.6,116.1,61.5z"/>
					</g>
				</g>
				<path class="st27" d="M106.4,62c-0.1,0-0.1-0.1-0.1-0.2c0.1-0.3-0.1-0.6-0.4-0.6c-0.3-0.1-0.6,0.1-0.6,0.4c0,0,0,0,0,0
					c0,0.1-0.1,0.1-0.2,0.1c-0.1,0-0.1-0.1-0.1-0.2c0.1-0.5,0.5-0.8,1-0.7c0.5,0.1,0.8,0.5,0.7,1c0,0,0,0,0,0.1
					C106.6,62,106.5,62,106.4,62C106.4,62,106.4,62,106.4,62z"/>
				<path class="st20" d="M105.3,64.4c-0.5-0.2-1-0.5-1.3-0.9c0,0,0-0.1,0-0.2c0,0,0.1,0,0.1,0c0,0,0,0,0,0c0.8,0.5,1.8,0.7,2.7,0.5
					c0,0,0.1,0,0.1,0.1c0,0,0,0,0,0c0,0.1,0,0.1-0.1,0.1C106.4,64.3,105.8,64.5,105.3,64.4z"/>
				<path class="st27" d="M105.1,65.1c-0.2,0-0.4-0.1-0.6-0.2c-0.1-0.1-0.1-0.2,0-0.2c0.1-0.1,0.2-0.1,0.2,0c0.3,0.2,0.6,0.2,1,0.2
					c0.1,0,0.2,0.1,0.2,0.1c0,0.1,0,0.2-0.1,0.2C105.5,65.1,105.3,65.1,105.1,65.1z"/>
				<g>
					<path class="st31" d="M101.6,56.3c0.3-0.2,0.7-0.3,1.1-0.2c0.2,0,0.3-0.2,0.3-0.3c0,0,0,0,0,0c0-0.2-0.2-0.3-0.3-0.3
						c-0.5,0-1,0.1-1.4,0.4C100.9,56,101.2,56.6,101.6,56.3z"/>
					<path class="st31" d="M111.7,58.2c-0.2-0.3-0.6-0.5-0.9-0.6c-0.2-0.1-0.2-0.3-0.1-0.4c0,0,0,0,0,0c0.1-0.2,0.3-0.2,0.4-0.1
						c0.5,0.2,0.9,0.4,1.2,0.8C112.4,58.2,111.9,58.6,111.7,58.2z"/>
				</g>
				<g>
					<g>
						<path class="st6" d="M96.9,59.8c0,0.2-0.3,0.4-0.5,0.3s-0.4-0.3-0.3-0.5c0-0.2,0.2-0.4,0.5-0.3C96.8,59.4,97,59.6,96.9,59.8
							C97,59.8,97,59.8,96.9,59.8z"/>
						<path class="st32" d="M96.6,60c-0.2,0-0.3-0.2-0.3-0.4c0,0,0,0,0,0c0-0.1,0.1-0.2,0.3-0.3l0,0c-0.2,0-0.4,0.1-0.5,0.3
							c0,0.2,0.1,0.4,0.3,0.5c0.2,0,0.4-0.1,0.5-0.3c0,0,0,0,0,0C96.9,59.9,96.8,60,96.6,60z"/>
					</g>
					<g>
						<path class="st6" d="M115.3,63.3c0,0.2-0.3,0.4-0.5,0.3s-0.4-0.3-0.3-0.5c0-0.2,0.2-0.4,0.5-0.3
							C115.2,62.8,115.4,63.1,115.3,63.3C115.3,63.3,115.3,63.3,115.3,63.3z"/>
						<path class="st32" d="M115,63.4c-0.2,0-0.3-0.2-0.3-0.4c0-0.1,0.1-0.2,0.3-0.3l0,0c-0.2,0-0.4,0.1-0.5,0.3
							c0,0.2,0.1,0.4,0.3,0.5c0.2,0,0.4-0.1,0.5-0.3c0,0,0,0,0,0C115.3,63.4,115.1,63.5,115,63.4z"/>
					</g>
				</g>
				<g>
					<path class="st17" d="M101.9,60.2c-0.1,0-0.1,0-0.1,0.1c0,0.1,0,0.1,0.1,0.1s0.1,0,0.1-0.1C102,60.3,101.9,60.2,101.9,60.2z"/>
					<path class="st27" d="M100.8,60.1c-0.1,0-0.1,0-0.1,0.1c0,0.1,0,0.1,0.1,0.1c0.1,0,0.1,0,0.1-0.1
						C100.9,60.2,100.8,60.1,100.8,60.1z"/>
					<path class="st27" d="M101.3,60.7c-0.1,0-0.1,0-0.1,0.1c0,0.1,0,0.1,0.1,0.1s0.1,0,0.1-0.1C101.5,60.8,101.4,60.7,101.3,60.7
						L101.3,60.7z"/>
					<path class="st27" d="M102.4,60.8c-0.1,0-0.1,0-0.1,0.1c0,0.1,0,0.1,0.1,0.1c0.1,0,0.1,0,0.1-0.1
						C102.5,60.8,102.4,60.8,102.4,60.8z"/>
					<path class="st27" d="M100.4,60.7c-0.1,0-0.1,0-0.1,0.1c0,0.1,0,0.1,0.1,0.1c0.1,0,0.1,0,0.1-0.1
						C100.5,60.8,100.5,60.7,100.4,60.7z"/>
					<path class="st27" d="M101.5,61.4c-0.1,0-0.1,0-0.1,0.1c0,0.1,0,0.1,0.1,0.1c0.1,0,0.1,0,0.1-0.1
						C101.6,61.5,101.6,61.4,101.5,61.4z"/>
					<path class="st27" d="M110.7,61.9c-0.1,0-0.1,0-0.1,0.1c0,0.1,0,0.1,0.1,0.1l0,0c0.1,0,0.1,0,0.1-0.1
						C110.8,61.9,110.7,61.9,110.7,61.9z"/>
					<path class="st27" d="M109.5,61.8c-0.1,0-0.1,0-0.1,0.1c0,0.1,0,0.1,0.1,0.1c0.1,0,0.1,0,0.1-0.1
						C109.6,61.8,109.6,61.8,109.5,61.8z"/>
					<path class="st27" d="M110.1,62.4c-0.1,0-0.1,0-0.1,0.1c0,0.1,0,0.1,0.1,0.1s0.1,0,0.1-0.1C110.2,62.4,110.2,62.4,110.1,62.4
						L110.1,62.4z"/>
					<path class="st27" d="M111.2,62.4c-0.1,0-0.1,0-0.1,0.1c0,0.1,0,0.1,0.1,0.1l0,0c0.1,0,0.1,0,0.1-0.1
						C111.3,62.5,111.2,62.4,111.2,62.4L111.2,62.4z"/>
					<path class="st27" d="M109.2,62.4c-0.1,0-0.1,0-0.1,0.1c0,0.1,0,0.1,0.1,0.1c0.1,0,0.1,0,0.1-0.1
						C109.3,62.4,109.3,62.4,109.2,62.4z"/>
					<path class="st27" d="M110.3,63.1c-0.1,0-0.1,0-0.1,0.1c0,0.1,0,0.1,0.1,0.1s0.1,0,0.1-0.1C110.4,63.1,110.4,63.1,110.3,63.1
						L110.3,63.1z"/>
				</g>
				<g>
					<g>
						<path class="st6" d="M103.7,59.1c-0.2,0.9-1,1.5-2,1.3c-0.9-0.2-1.5-1-1.3-2c0.2-0.9,1-1.5,2-1.3c0,0,0,0,0,0
							C103.3,57.3,103.9,58.2,103.7,59.1z"/>
						<path class="st33" d="M103.4,59c-0.1,0.6-0.7,0.9-1.3,0.8c-0.6-0.1-0.9-0.7-0.8-1.3c0.1-0.6,0.7-0.9,1.2-0.8
							C103.2,57.9,103.6,58.4,103.4,59z"/>
						<path class="st27" d="M101.8,60.4L101.8,60.4c-0.1,0-0.2,0-0.2,0c-0.1,0-0.2,0-0.3-0.1c-0.1,0-0.2-0.1-0.3-0.2
							c-0.1-0.1-0.2-0.2-0.3-0.3c-0.1-0.1-0.2-0.3-0.2-0.4c-0.1-0.2-0.1-0.3-0.1-0.5c0-0.3,0-0.7,0.2-1c0.1-0.1,0.2-0.3,0.3-0.4
							c0.1-0.1,0.2-0.2,0.4-0.3c0.2-0.1,0.5-0.2,0.7-0.2c0.1,0,0.2,0,0.3,0c0.1,0,0.1,0,0.2,0l0.1,0h-0.1c0,0-0.1,0-0.2,0
							c-0.1,0-0.2,0-0.3,0c-0.1,0-0.2,0.1-0.3,0.1c-0.1,0-0.2,0.1-0.3,0.2c-0.1,0.1-0.2,0.2-0.3,0.3c-0.2,0.2-0.3,0.5-0.4,0.8
							c0,0.1,0,0.3,0,0.4c0,0.1,0,0.3,0.1,0.4c0.1,0.1,0.1,0.3,0.2,0.4c0.1,0.1,0.2,0.2,0.2,0.3c0.1,0.1,0.2,0.1,0.3,0.2
							c0.1,0,0.1,0.1,0.2,0.1C101.6,60.4,101.7,60.4,101.8,60.4L101.8,60.4z"/>
					</g>
					<g>
						<path class="st6" d="M108.6,60c-0.2,0.9,0.4,1.8,1.3,2c0.9,0.2,1.8-0.4,2-1.3c0.2-0.9-0.4-1.8-1.3-2
							C109.7,58.5,108.8,59.1,108.6,60C108.6,60,108.6,60,108.6,60z"/>
						<path class="st33" d="M108.9,60.1c-0.1,0.6,0.3,1.1,0.9,1.2c0.6,0.1,1.1-0.3,1.2-0.9c0.1-0.6-0.3-1.1-0.9-1.2
							C109.6,59.1,109,59.5,108.9,60.1z"/>
						<path class="st27" d="M109.9,62L109.9,62c0.1,0,0.2,0,0.2,0c0.1,0,0.2,0,0.3,0c0.1,0,0.2-0.1,0.3-0.1c0.1,0,0.2-0.1,0.3-0.2
							c0.1-0.1,0.2-0.2,0.3-0.3c0.2-0.2,0.3-0.5,0.4-0.8c0-0.2,0-0.3,0-0.5c0-0.1,0-0.3-0.1-0.4c-0.1-0.1-0.1-0.3-0.2-0.4
							c-0.1-0.1-0.2-0.2-0.2-0.3c-0.1-0.1-0.2-0.1-0.3-0.2c-0.1,0-0.1-0.1-0.2-0.1c-0.1,0-0.1,0-0.2-0.1l-0.1,0l0.1,0
							c0.1,0,0.1,0,0.2,0c0.1,0,0.2,0,0.3,0.1c0.1,0,0.2,0.1,0.3,0.2c0.1,0.1,0.2,0.2,0.3,0.3c0.1,0.1,0.2,0.3,0.2,0.4
							c0.1,0.2,0.1,0.3,0.1,0.5c0,0.3,0,0.7-0.2,1c-0.1,0.1-0.2,0.3-0.3,0.4c-0.2,0.2-0.5,0.4-0.8,0.4c-0.2,0.1-0.4,0.1-0.6,0
							C110.1,62,110,62,109.9,62L109.9,62z"/>
					</g>
				</g>
				<path class="st31" d="M114.3,58.5c0.4,0.1,0.6,0.7,0.8,1.1c0.2,0.4,0.3,0.9,0.4,1.3c0.3,0,0.5,0.2,0.7,0.4
					c0.1-0.2,0.1-0.5,0.2-0.7c0.2-0.6,0.3-1.2,0.4-1.9c0.4-1.7,0.3-3.5-0.3-5.2c-0.6-1.6-1.7-3-3-4.1c-1.2-1-2.6-1.6-4.1-2
					c-1.1-0.3-2.3-0.4-3.5-0.4c0,0-9.3-0.4-9.7,10.5c0,0,0.1-0.2,0.7-0.1c0,0,0.5-1,0.5-1.1c0.7-1.3,1.9-2.2,3.3-2.4
					c0,0,3-0.4,3.8-1.4C104.6,52.6,104.5,56,114.3,58.5z"/>
				<path class="st18" d="M113.1,51.9c-1.3-0.9-2.8-1.4-4.4-1.6c3.3,2.5,3.5,3.7,3.5,3.7c-1.1-1.1-2.4-2-3.9-2.6
					c0.2,1.5,2.4,2.8,2.4,2.8c-3.3-1-3.6-2.8-3.6-2.8c-0.6-0.6-1,0.6-1,0.6c0.2-0.7-0.1-1.4-0.6-1.8l0.8-2.5
					C106.3,47.8,111.8,48.2,113.1,51.9z"/>
				<path class="st18" d="M101.1,51.3c0.7-0.6,1.6-1,2.4-1.4c-1.4,0.2-2.7,0.7-4,1.4c0.8-1,1.9-1.8,3.1-2.4
					c-0.9,0.1-1.9,0.4-2.7,0.9c3.1-2.6,5.9-2.2,5.9-2.2l-1.2,4C104.7,51.7,104.5,50.5,101.1,51.3z"/>
				<path class="st18" d="M111.6,55.2c0,0,3.8,2.2,4.1,4c-0.1-0.8-0.3-1.6-0.7-2.3c0.7,0.3,1.2,0.9,1.4,1.6c0,0,0.7-2.5-3.6-4.6
					c0.8,0.7,1.4,1.6,1.8,2.6C113.8,55.6,112.7,55.2,111.6,55.2z"/>
				<path class="st18" d="M102.3,52.4c0,0-4.2,1.4-4.8,3.2c0.2-0.8,0.6-1.5,1.2-2.1c-0.7,0.1-1.4,0.6-1.7,1.3c0,0-0.1-2.6,4.4-3.8
					c-0.9,0.5-1.7,1.3-2.3,2.2C100,52.5,101.2,52.2,102.3,52.4z"/>
			</g>
		</g>
		<text transform="matrix(1 0 0 1 13.003 119.032)" class="st34 st35 st36">w</text>
		<g>
			<rect x="77.5" y="79.2" class="st6" width="11.1" height="6.5"/>
			<g>
				<path class="st37" d="M98.9,103.9c0.2,0,0.4-0.1,0.5,0.1c0.4,0.4,0.9,0.7,1.5,1c0.5,0.4,0.9,1,1,1.7c0,0.1,0,0.2,0.1,0.2v0.5
					c-0.2,0.2-0.3,0.4-0.3,0.7c0,0.4-0.9,1.3-1.3,1.3c-0.2,0-0.4-0.1-0.5-0.3c-0.3-0.3-0.5-0.6-0.8-1c-0.1,0.2-0.2,0.3-0.4,0.4
					c-0.2,0.1-0.4,0.1-0.5,0c-0.2-0.1-0.3-0.4-0.2-0.5c0.2-0.3,0.2-0.7,0.2-1.1c0-0.4-0.1-0.8-0.5-1c-0.4-0.3-0.4-0.9-0.1-1.2
					c0,0,0,0,0,0c0.2-0.2,0.2-0.3,0-0.5c-0.3-0.4-0.6-0.8-0.8-1.2c-0.5-0.8-1-1.5-1.7-2.1c-0.2,0.1-0.1,0.3-0.1,0.4
					c0,1.8,0,3.6,0,5.4c0.1,1.2-0.7,2.3-1.9,2.4c-0.2,0-0.3,0-0.5,0c-2,0-4,0-5.9,0c-0.6,0-0.7,0.2-0.9,0.8c-0.3,1.6-0.3,3.3,0,5
					c0.1,0.5,0.1,1,0.9,0.9c0.1,0,0.3,0,0.4,0.2l0,0.2c-0.2-0.1-0.5-0.2-0.8-0.1c0.1,0.3,0.1,0.5-0.2,0.6c-0.3,0.1-0.3-0.2-0.4-0.4
					c0-0.1,0-0.2-0.1-0.2c-0.3-0.9-0.5-1.8-0.6-2.7c-0.1-1.4,0-2.8,0.5-4.1c-1.9,0-3.8,0-5.7,0c-0.4,0-0.9,0.8-1.1,1.4
					c-0.4,1.7-0.4,3.4,0,5.1c0.1,0.3,0,0.6,0.4,0.6v0.2c0,0.3,0.1,0.6-0.4,0.7c-0.3-0.1-0.2-0.5-0.5-0.5l-0.1-0.1
					c0.2-0.1,0.1-0.2,0.1-0.4c-0.8-2.2-0.7-4.7,0.3-6.8c0,0,0-0.1,0-0.2h-2.5c-1.2,0-2.5-0.1-3.7,0c-1.7,0.1-2.4-1-2.4-2.4
					c0-2.2,0-4.5,0-6.7c-0.4,0.1-0.6,0.4-0.9,0.6c-0.7,0.5-1.3,1-1.9,1.5c-0.1,0.1-0.3,0.2-0.3,0.4c-0.2,0.3-0.4,0-0.6-0.1
					c-0.8-0.3-1.2-0.1-1.6,0.5h-0.2c0-0.5,0.4-0.9,0.9-0.9c0,0,0.1,0,0.1,0c0.6,0,1.1-0.2,1.5-0.7c0.8-0.8,1.6-1.4,2.5-2
					c0.3-0.2,0.5-0.5,0.4-0.9c0-5.8,0-11.6,0-17.4c0-0.4,0-0.7,0.1-1.1c0.2-1,1-1.7,2-1.6c1.4,0,2.8,0,4.2,0
					c0.8,0.1,1.5-0.1,2.2-0.5c0.4-0.3,0.9-0.4,1.3-0.3c0.5,0.1,0.6,0.3,0.4,0.8h3.7c0-0.6,0.1-0.8,0.8-0.8c0.5,0,1,0.2,1.3,0.5
					c0.3,0.2,0.6,0.3,0.9,0.3c1.8,0,3.6,0.1,5.3,0c1.3-0.2,2.5,0.7,2.7,2c0,0.2,0,0.4,0,0.7c0,6.1,0,12.2,0,18.3
					c0,0.3,0.1,0.7,0.3,0.9c1.2,1.1,2.1,2.4,2.9,3.9c0.1,0.1,0,0.3-0.1,0.3c0,0,0,0,0,0c-0.3,0.3-0.5,0.8-0.4,1.2
					c0,0.1,0.1,0.3,0.2,0.3c0.1,0,0.2,0,0.3-0.1c0.2-0.4,0.6-0.8,1-1C99.5,104.2,99,104.3,98.9,103.9z M85.1,78.8l-4.7,0
					c-0.3-0.1-0.6-0.1-0.9,0c-0.7-0.1-1.5,0-2,0.5c-0.1-0.5-0.4-0.5-0.7-0.5c-1.5,0-2.9,0-4.4,0c-0.8-0.1-1.5,0.5-1.6,1.3
					c0,0.1,0,0.2,0,0.3v26.3c0,1.2,0.5,1.7,1.7,1.7c6.8,0,13.6,0,20.3,0c1.4,0,1.9-0.6,1.9-1.9c0-2.2,0-4.3,0-6.5
					c0-6.4,0-12.9,0-19.3c0-1.3-0.6-1.9-1.9-1.9c-1.5,0-3.1,0-4.6,0c-0.3,0-0.6,0-0.7,0.4c-0.5-0.4-1.2-0.5-1.9-0.4
					C85.5,78.7,85.3,78.7,85.1,78.8z M100.7,106.2c0.4,0.1,0.5,0.4,0.7,0.6c0-0.1,0-0.3,0-0.4c-0.1-0.7-0.7-1.2-1.4-1.4
					c-0.7,0-1.3,0.5-1.3,1.1c0,0.7-0.1,1.5-0.4,2.2c0.7,0,0.6-0.6,0.9-0.9c0.1,0.6,1,1.6,1.4,1.7c-0.1-0.7-0.8-1.2-0.8-2
					c0.5,0.5,0.7,1.2,1.3,1.7c0.1-0.8-0.8-1.3-0.6-2.1l1,1.5C101.6,107.4,101,106.9,100.7,106.2z"/>
				<path class="st38" d="M63.1,105.3c0.3-0.2,0.2-0.7,0.5-0.9h0.1c0,0.5-0.5,1-0.2,1.6c0.3-0.4,0.1-1,0.7-1.2c0,0.6-0.6,1-0.4,1.6
					h-0.1l-0.6-0.5L63.1,105.3z"/>
				<path class="st39" d="M80.2,116.3c0.8,0.7,1.3,1.5,1.6,2.5c0.2,0.4-0.1,0.6-0.4,0.7l0-0.2c0.2-0.3,0.2-0.3,0-0.6
					c-1.6,1.2-3.4,1.9-5.3,2c0.2,0.2,0.5,0.4,0.8,0.3c0.3-0.1,0.5-0.1,0.8-0.1l0.2,0c-0.6,0.3-1.4,0.3-2-0.1c-0.1,0-0.2-0.1-0.2-0.2
					c-0.3-0.8-0.1-1.6,0.5-2.2c0.4-0.4,0.9-0.6,1.4-0.7c0.3,0,0.3-0.2,0.4-0.5c0-0.4,0.1-0.9,0.6-1l0.1,0.1
					c-0.2,0.1-0.4,0.2-0.3,0.4c0.1,0.2,0.3,0.2,0.5,0.2c0.5,0,1-0.2,1.4-0.4c0,0.4-0.3,0.4-0.5,0.5c-0.5,0.2-1.1,0.2-1.6,0.1
					c-0.1,0.3-0.1,0.5,0.3,0.5c0.4-0.1,0.7,0,1,0.2c-0.3,0.3-0.7,0-0.9,0.1c-0.5,0-0.9,0-1.3,0.2c-0.2-0.1-0.4,0-0.5,0.2l0,0
					c-0.4,0.1-0.6,0.5-0.8,0.9c-0.2,0.3-0.2,0.7,0,1c0.2,0.3,0.5,0.1,0.8,0.1c1.8-0.3,3.4-1,4.8-2.1c-0.2-0.6-0.6-1.2-1.2-1.7
					l-0.1-0.3L80.2,116.3z"/>
				<path class="st40" d="M63.7,106.4h0.1c0.3,0.1,0.4,0,0.5-0.3c0.1-0.4,0.2-0.8,0.5-1.1c0.3,0.6-0.4,1-0.1,1.6
					c0.5-0.5,0.5-1.1,1-1.6c0.1,0.8-0.6,1.2-0.4,1.9c0.5-0.2,0.5-0.6,0.7-0.9c0.3-0.7,0.3-0.7,0.6-0.7c0,0.3-0.4,0.5-0.3,0.9
					c0.4,0,0.7-0.3,0.8-0.6c0.2-0.9-0.4-1.8-1.3-2c-0.1,0-0.1,0-0.2,0c-0.7,0-1.4,0.3-1.8,0.9h-0.1c0.1-0.4,0.4-0.8,0.8-0.9
					c0.3-0.1,0.5-0.4,0.5-0.7H65c0,0.2,0,0.4,0.3,0.4c0.4,0,0.8,0.1,1.1,0.3c0.2,0.1,0.3,0.5,0.6,0.3c0.3-0.2,0.6-0.4,0.4-0.8
					c-0.1-0.2,0.1-0.1,0.2-0.2c0.2,0.3,0.2,0.7-0.1,1c0,0,0,0-0.1,0c-0.3,0.1-0.4,0.5-0.3,0.7c0.3,1.1,0,1.5-1,2c0,0-0.1,0-0.1,0.1
					c-0.4,1-1.1,0.5-1.6,0.2C64.2,106.7,63.7,107,63.7,106.4z"/>
				<path class="st41" d="M67.7,102.8c-0.1,0-0.3,0-0.2,0.2c0.2,0.4-0.1,0.6-0.4,0.8c-0.3,0.2-0.4-0.2-0.6-0.3
					c-0.3-0.2-0.7-0.3-1.1-0.3c-0.3,0-0.3-0.1-0.3-0.4c0.4-0.7,0.7-0.8,1.6-0.5c0.2,0.1,0.4,0.3,0.6,0.1
					C67.4,102.4,67.6,102.5,67.7,102.8z"/>
				<path class="st42" d="M85.6,120.4L85.6,120.4c-0.1-0.4-0.3-0.1-0.5-0.1c-0.5,0.1-1,0.2-1.5,0.3c-0.2,0-0.5,0.1-0.5-0.3l0.7-0.1
					c1.3-0.2,2.6-0.6,3.7-1.3c0.4-0.2,0.7-0.4,1.1-0.6c0.3,0.3,0,0.5-0.1,0.7c-0.9,0.5-1.7,0.9-2.7,1.2
					C85.7,120.1,85.4,120.1,85.6,120.4z"/>
				<path class="st39" d="M83.9,120.1l-0.7,0.1c0,0.4,0.3,0.3,0.5,0.3c0.5-0.1,1-0.2,1.5-0.3c0.1,0,0.4-0.3,0.5,0.1
					c-0.7,0.1-1.4,0.3-2.1,0.4c-0.3,0.1-0.6-0.1-0.7-0.4c0,0,0-0.1,0-0.1c-0.6-1.5,0.2-2.7,2-3l0,0.2c-0.2,0-0.4,0.1-0.5,0.2
					c-1.1,0.6-1.6,1.1-1.2,2.3c0.3,0.1,0.6,0,0.8,0L83.9,120.1z"/>
				<path class="st43" d="M85.9,115.9c0.1,0.2,0.1,0.5,0.4,0.4c0.3-0.1,0.3-0.3,0.2-0.6c0.3-0.1,0.6-0.1,0.8,0.1
					c0,0.1-0.1,0.3,0,0.4l0,0c-0.1-0.1-0.2,0-0.1,0.1l0,0c-0.2,0-0.6-0.1-0.6,0.3h0c0-0.2-0.2-0.2-0.3-0.1c-0.4,0.1-0.7,0-1-0.2
					c0,0,0-0.1,0-0.1c0,0,0,0,0,0C85.5,116.2,85.6,115.9,85.9,115.9z"/>
				<path class="st40" d="M85.3,116.3c0.3,0.2,0.7,0.3,1,0.2c0.1,0,0.3-0.1,0.3,0.1c-0.4,0.2-0.9,0.2-1.4,0
					c-0.1,0.1-0.2,0.3-0.1,0.4c0.4,0,0.9,0.1,1.3,0.3c-0.6,0-1.2,0-1.7,0.1l0-0.2c0.3-0.1,0.2-0.3,0.2-0.5
					C85,116.6,85,116.4,85.3,116.3z"/>
				<path class="st39" d="M88.5,118.9c0.1-0.2,0.4-0.4,0.1-0.7c-0.3,0.2-0.7,0.5-1.1,0.6l-0.2,0c0.2-0.3,0.6-0.4,0.9-0.7
					c0.2-0.2,0.3-0.3,0.2-0.6l0.1-0.1c0.1,0.2,0.3,0.5,0.4,0.7c0.2,0.3,0.2,0.6-0.3,0.8L88.5,118.9z"/>
				<path class="st38" d="M88.5,118.9l0.2,0c-0.4,0.4-1,0.8-1.5,1c-0.5,0.2-1,0.4-1.5,0.5c-0.2-0.2,0-0.2,0.2-0.3
					C86.7,119.8,87.6,119.4,88.5,118.9z"/>
				<path class="st40" d="M88.5,117.4l-0.1,0.1c-0.3-0.4-0.4-1.1-1.1-1.3c-0.1-0.1,0-0.3,0-0.4l0-0.2
					C87.9,116.1,88.4,116.7,88.5,117.4z"/>
				<path class="st38" d="M77.9,121l-0.2,0c0.1-0.1,0.3-0.2,0.5-0.3c0.7-0.2,1.3-0.4,2-0.7l0.1,0.1C79.5,120.6,78.7,120.9,77.9,121z
					"/>
				<path class="st44" d="M81.4,119.3l0,0.2c-0.3,0.4-0.7,0.5-1.1,0.7l-0.1-0.1L81.4,119.3z"/>
				<path class="st39" d="M79.4,116.3v-0.2c0.3,0,0.6-0.1,0.8,0.2l-0.1,0.1C79.9,116.3,79.7,116.2,79.4,116.3z"/>
				<path class="st39" d="M85.9,115.9c-0.3,0-0.4,0.2-0.6,0.3c-0.2,0-0.1-0.2,0-0.2c0.2-0.1,0.3-0.2,0.5-0.3
					C85.9,115.8,85.9,115.8,85.9,115.9z"/>
				<path class="st42" d="M98.9,103.9c0.1,0.3,0.6,0.2,0.6,0.6c-0.4,0.3-0.8,0.6-1,1c0,0.1-0.2,0.2-0.3,0.1c-0.2,0-0.2-0.1-0.2-0.3
					c-0.1-0.4,0.1-0.9,0.4-1.2c0.1-0.1,0.2-0.2,0.1-0.3c0,0,0,0,0,0L98.9,103.9z"/>
				<path class="st45" d="M85.7,78.7c0.7-0.1,1.3,0.1,1.9,0.4c0.1-0.4,0.3-0.4,0.7-0.4c1.5,0,3.1,0,4.6,0c1.4,0,1.9,0.6,1.9,1.9
					c0,6.4,0,12.9,0,19.3c0,2.2,0,4.3,0,6.5c0,1.4-0.6,1.9-1.9,1.9c-6.8,0-13.6,0-20.3,0c-1.2,0-1.7-0.5-1.7-1.7V80.4
					c-0.1-0.8,0.5-1.5,1.3-1.6c0.1,0,0.2,0,0.3,0c1.5,0,2.9,0,4.4,0c0.3,0,0.6,0,0.7,0.5c0.6-0.4,1.3-0.6,2-0.5l0,0
					c-0.2,0.1-0.3,0.2-0.5,0.3c-0.1,0.1-0.4,0.2-0.2,0.4c-0.1-0.2-0.2,0-0.3,0c-0.4,0-0.7-0.1-1.1-0.1c-0.2,0-0.4,0.1-0.4,0.3
					s0.1,0.3,0.4,0.3c0.3,0,0.6,0,0.9,0l0,0c-0.4,0.2-0.3,0.6-0.5,0.9l-0.1,0c-1.1,0-2.2,0-3.3,0c-0.8-0.1-1.6,0.5-1.7,1.3
					c0,0.1,0,0.2,0,0.2c0,1.5,0,3.1,0,4.6c0,0.9,0.7,1.6,1.5,1.6c0.1,0,0.1,0,0.2,0c1.7-0.1,3.4,0,5.1,0c0.2,0,0.4,0,0.6,0.1
					c1.2,0.6,2.7,0.8,4,0.4c1-0.5,2-0.7,3.1-0.5c1.4,0,2.9,0,4.3,0c0.8,0.1,1.6-0.6,1.6-1.4c0-0.1,0-0.1,0-0.2c0-1.5,0-3.1,0-4.6
					c0-0.8-0.6-1.5-1.4-1.6c-0.1,0-0.1,0-0.2,0c-1.3,0-2.5,0-3.8,0l-0.1-0.3c0-0.2-0.1-0.3-0.2-0.4c0-0.2-0.1-0.4-0.3-0.5
					c0-0.2-0.2-0.2-0.3-0.2C86.4,79.1,85.9,79.2,85.7,78.7C85.7,78.8,85.7,78.8,85.7,78.7z M92.7,103.7c0-0.5,0-1,0-1.5
					c0.1-1.6-0.3-2.2-2.1-2.1c-0.8-0.1-1.5,0.5-1.6,1.3c0,0.1,0,0.1,0,0.2c0,1.4,0,2.9,0,4.3c-0.1,0.7,0.4,1.4,1.1,1.5
					c0.1,0,0.3,0,0.4,0c0.2,0,0.3,0,0.5,0c1.2,0,1.6-0.4,1.6-1.6C92.7,105,92.7,104.3,92.7,103.7z M80.2,99.2c0.2,0,0.4,0,0.6,0
					c0.6,0,1.1-0.5,1.2-1.1c0-0.5,0-1,0-1.5c0-0.7-0.6-1.2-1.3-1.2c0,0,0,0,0,0c-0.4,0-0.7,0-1.1,0c-0.7,0-1.2,0.5-1.2,1.2
					c0,0.5,0,1.1,0,1.6c0.1,0.6,0.5,1,1.1,1.1C79.7,99.2,79.9,99.2,80.2,99.2z M81.9,103.4L81.9,103.4c0-0.2,0-0.3,0-0.5
					c0.1-0.7-0.4-1.3-1.1-1.4c-0.1,0-0.2,0-0.4,0c-0.3,0-0.5,0-0.8,0c-0.7-0.1-1.3,0.5-1.4,1.2c0,0,0,0.1,0,0.1c0,0.4,0,0.8,0,1.2
					c0,0.7,0.6,1.3,1.3,1.3c0,0,0.1,0,0.1,0c0.4,0,0.7,0,1.1,0c0.6,0,1.1-0.5,1.2-1.1C82,103.9,81.9,103.7,81.9,103.4z M90.8,99.2
					c1.5,0,1.9-0.3,1.9-1.8c0-0.1,0-0.3,0-0.4c0-0.7-0.2-1.3-0.8-1.5c-0.8-0.3-1.7-0.3-2.4,0.2c-0.3,0.2-0.5,0.5-0.5,0.8
					c-0.1,0.6-0.1,1.2,0,1.8c0.1,0.4,0.4,0.8,0.8,0.9C90.2,99.2,90.5,99.2,90.8,99.2L90.8,99.2z M81.9,91.5c0.2-0.7-0.1-1.3-0.6-1.8
					c-0.8-0.3-1.7-0.3-2.5,0c-0.3,0.1-0.4,0.4-0.5,0.6c-0.3,2-0.3,3.3,2.2,3c0.1,0,0.2,0,0.3,0c0.6-0.1,1-0.6,1-1.1
					C82,92.1,81.9,91.8,81.9,91.5L81.9,91.5z M76.6,103.1c0-0.1,0-0.4,0-0.7c0-0.4-0.3-0.8-0.6-0.9c-0.7-0.3-1.6-0.3-2.3-0.1
					c-0.2,0.1-0.4,0.3-0.5,0.5c-0.2,0.5-0.3,1.1-0.2,1.7c0,1.3,0.4,1.6,1.6,1.6C76.3,105.2,76.7,104.6,76.6,103.1z M74.7,99.2
					c0.2,0,0.4,0,0.7,0c0.6,0,1.1-0.4,1.2-1c0.1-0.6,0.1-1.2,0-1.8c-0.1-0.5-0.4-0.8-0.8-1c-0.7-0.2-1.3-0.2-2,0
					c-0.2,0.1-0.4,0.2-0.5,0.4c-0.3,0.5-0.4,1.1-0.3,1.7C72.9,99,73.4,99.3,74.7,99.2z M87.7,91.5c0-0.2,0-0.4,0-0.6
					c-0.1-1-0.4-1.3-1.2-1.4c-0.4,0-0.8,0-1.2,0c-0.6,0-1.1,0.5-1.1,1.1c-0.1,0.6-0.1,1.2,0,1.7c0.1,0.6,0.6,1,1.1,1.1
					c0.4,0,0.9,0,1.3,0c0.9,0,1.1-0.7,1.2-1.3C87.7,92,87.7,91.8,87.7,91.5z M93,91.5L93,91.5c0,0,0-0.1,0-0.1c0-0.6,0-1.3-0.6-1.6
					c-0.8-0.3-1.7-0.3-2.5,0c-0.1,0-0.2,0.2-0.3,0.3c-0.3,0.6-0.4,1.3-0.3,1.9c0,0.8,0.3,1.3,0.8,1.4c0.8,0.2,2.3,0.3,2.6-0.5
					c0.1-0.2,0.2-0.3,0.2-0.5C92.9,92.2,92.9,91.8,93,91.5L93,91.5z M87.4,97.3c0-0.2,0-0.5,0-0.7c0.1-0.5-0.2-1-0.7-1.1
					c-0.7-0.2-1.4-0.2-2,0c-0.5,0.1-0.8,0.5-0.8,1c0,0.5,0,1.1,0,1.6c0,0.6,0.4,1,1,1.1c0,0,0,0,0,0c0.4,0,0.8,0,1.2,0
					c0.9,0,1.3-0.4,1.3-1.3L87.4,97.3z M87.4,103.4c0-0.3,0-0.6,0-0.8c0.1-0.4-0.2-0.9-0.7-1c-0.7-0.2-1.4-0.2-2.1-0.1
					c-0.5,0.1-0.8,0.6-0.8,1c0,0.5,0,1.1,0,1.6c0,0.4,0.2,0.7,0.5,0.9c0.7,0.3,1.5,0.3,2.3,0.1c0.5,0,0.8-0.5,0.8-1c0,0,0-0.1,0-0.1
					C87.4,103.9,87.4,103.7,87.4,103.4L87.4,103.4z M76.7,91.6c0-0.3,0-0.6,0-0.9c0-0.4-0.3-0.8-0.7-0.9c-0.7-0.2-1.4-0.3-2.1-0.1
					c-0.4,0.1-0.7,0.4-0.8,0.9c-0.1,0.7-0.1,1.4,0,2.1c0,0.4,0.4,0.8,0.8,0.8c0.6,0.1,1.3,0.1,1.9,0c0.5-0.1,0.8-0.5,0.8-1
					C76.7,92.1,76.7,91.9,76.7,91.6z M73.7,79.6c-0.3,0-0.5,0-0.8,0c-0.2,0-0.4,0.1-0.4,0.3s0.1,0.3,0.3,0.3c0.5,0,1.1,0,1.6,0
					c0.2,0,0.3-0.1,0.3-0.3c0,0,0,0,0,0c0-0.2-0.2-0.2-0.3-0.2C74.2,79.6,73.9,79.6,73.7,79.6z"/>
				<path class="st41" d="M100.7,106.2c0.3,0.7,0.9,1.2,0.7,2l-1-1.5c-0.2,0.8,0.7,1.2,0.6,2.1c-0.6-0.5-0.8-1.3-1.3-1.7
					c0,0.8,0.7,1.3,0.8,2c-0.4,0-1.2-1-1.4-1.7c-0.3,0.3-0.2,0.9-0.9,0.9c0.3-0.7,0.4-1.4,0.4-2.2c0.1-0.7,0.7-1.2,1.3-1.1
					c0.7,0.1,1.2,0.7,1.4,1.4c0,0.1,0,0.3,0,0.4C101.2,106.6,101.1,106.3,100.7,106.2z"/>
				<path class="st45" d="M80.4,78.7l4.7,0l0,0.1c-0.8,0.1-1.5,0.7-1.7,1.5c-0.1,0.4-0.5,0.7-0.9,0.6c-0.1,0-0.2,0-0.2-0.1
					c0-0.2-0.2-0.4-0.2-0.7c0.2-0.1,0.4,0,0.6-0.1s0.4-0.1,0.4-0.4s-0.2-0.3-0.4-0.3h-1.1l-0.4-0.3c-0.2-0.2-0.5-0.2-0.7-0.3
					L80.4,78.7z"/>
				<path class="st43" d="M79.4,116.3c0.2,0,0.5,0,0.7,0.1l0.1,0.3l0,0c-0.4,0.2-0.9,0.4-1.4,0.4c-0.2,0-0.4,0-0.5-0.2
					c-0.1-0.2,0.1-0.3,0.3-0.4c0.3,0,0.2,0.4,0.5,0.5C79.5,116.9,79.4,116.5,79.4,116.3z"/>
				<path class="st46" d="M80.4,78.7l0,0.1c-0.3,0.1-0.6,0.1-0.8-0.1l0,0C79.8,78.7,80.1,78.7,80.4,78.7z"/>
				<path class="st46" d="M85.1,78.9l0-0.1c0.2-0.1,0.4-0.1,0.6,0c0,0,0,0.1,0,0.1C85.5,78.9,85.3,78.9,85.1,78.9z"/>
				<path class="st41" d="M63.7,104.4c0.4-0.6,1.1-0.9,1.8-0.9c0.9,0.1,1.6,0.9,1.5,1.9c0,0.1,0,0.1,0,0.2c-0.1,0.4-0.4,0.6-0.8,0.6
					c0-0.3,0.3-0.5,0.3-0.9c-0.3,0-0.3,0-0.6,0.7c-0.1,0.3-0.2,0.7-0.7,0.9c-0.2-0.7,0.5-1.1,0.4-1.9c-0.5,0.5-0.5,1.2-1,1.6
					c-0.3-0.6,0.4-1.1,0.1-1.6c-0.3,0.3-0.4,0.7-0.5,1.1c-0.1,0.3-0.2,0.4-0.5,0.3c-0.2-0.6,0.4-1,0.4-1.6c-0.6,0.2-0.4,0.8-0.7,1.2
					C63.2,105.4,63.7,104.9,63.7,104.4z"/>
				<path class="st45" d="M78.5,118c0.3-0.2,0.6,0.2,0.9-0.1c-0.3-0.2-0.7-0.2-1-0.2c-0.4,0-0.4-0.2-0.3-0.5
					c0.5,0.2,1.1,0.1,1.6-0.1c0.2-0.1,0.5-0.1,0.5-0.5l0,0c0.5,0.4,0.9,1,1.2,1.7c-1.4,1.1-3,1.8-4.8,2.1c-0.3,0-0.6,0.2-0.8-0.1
					c-0.2-0.3-0.2-0.7,0-1c0.2-0.3,0.4-0.7,0.8-0.9c0.1,0.1,0,0.3,0.2,0.3c0.4-0.3,0.9-0.4,1.3-0.4C78.5,118.4,78.6,118.3,78.5,118z
					"/>
				<path class="st43" d="M81.4,119.3l-1.2,0.7c-0.7,0.2-1.3,0.5-2,0.7c-0.2,0-0.3,0.1-0.5,0.3c-0.3,0-0.6,0-0.8,0.1
					c-0.3,0-0.6-0.1-0.8-0.3c1.9-0.2,3.8-0.9,5.3-2C81.5,119,81.5,119,81.4,119.3z"/>
				<path class="st41" d="M78.5,118c0,0.3-0.1,0.4-0.3,0.4c-0.5,0-0.9,0.2-1.3,0.4c-0.2-0.1-0.1-0.3-0.2-0.3l0,0
					c0.2,0.1,0.4,0,0.5-0.2c0,0,0,0,0,0C77.6,118.1,78.1,118,78.5,118z"/>
				<path class="st45" d="M77.2,118.2c-0.1,0.2-0.3,0.3-0.5,0.3c0,0,0,0,0,0C76.8,118.3,77,118.2,77.2,118.2z"/>
				<path class="st38" d="M87.3,118.7l0.2,0c-1.1,0.7-2.4,1.2-3.7,1.3v-0.2c0.6-0.1,1.2-0.3,1.8-0.5
					C86.2,119.2,86.7,118.9,87.3,118.7z"/>
				<path class="st45" d="M87.3,118.7c-0.6,0.2-1.1,0.4-1.7,0.7c-0.6,0.2-1.2,0.3-1.8,0.5c-0.3,0-0.6,0.1-0.8,0
					c-0.4-1.2,0.2-1.7,1.2-2.3c0.2-0.1,0.4-0.1,0.5-0.2c0.6-0.1,1.2-0.1,1.7-0.1c-0.4-0.2-0.8-0.3-1.3-0.3c-0.1-0.1-0.1-0.3,0.1-0.4
					c0.4,0.2,0.9,0.1,1.4,0h0c0.2-0.1,0.5,0,0.6-0.3l0,0c0.1,0,0.1,0,0.1-0.1l0,0c0.6,0.2,0.7,0.8,1.1,1.3c0.1,0.2,0,0.4-0.2,0.6
					C88,118.3,87.6,118.4,87.3,118.7z M85.6,117.9c-0.5-0.5-1.6,0-1.8,0.8C84.2,118.2,84.9,117.9,85.6,117.9z"/>
				<path class="st40" d="M87.3,116.4c-0.1,0.3-0.4,0.2-0.6,0.3C86.7,116.2,87,116.4,87.3,116.4z"/>
				<path class="st40" d="M87.4,116.3c0,0.1,0,0.1-0.1,0.1C87.2,116.3,87.2,116.2,87.4,116.3z"/>
				<path class="st47" d="M84,89.3c-1.3,0.4-2.8,0.2-4-0.4c-0.2-0.1-0.4-0.1-0.6-0.1c-1.7,0-3.4,0-5.1,0c-0.9,0.1-1.6-0.5-1.7-1.4
					c0-0.1,0-0.1,0-0.2c0-1.5,0-3.1,0-4.6c0-0.8,0.6-1.6,1.5-1.6c0.1,0,0.2,0,0.2,0c1.1,0.1,2.2,0,3.3,0c0,0.1,0,0.2,0.1,0.2l0-0.2
					c0.1-0.3,0.1-0.8,0.5-0.9c0.2,0.1,0.1,0.3,0,0.4c-0.1,0.5-0.4,1-0.3,1.5c-0.1,0.3,0.4,0.6-0.2,0.8l-0.3-1.3c-1.2,0-2.4,0-3.5,0
					c-0.6,0-0.8,0.2-0.8,0.9c0,1.6,0,3.2,0,4.9c0,0.6,0.2,0.9,0.9,0.9c1.5,0,3,0,4.5,0c0.2,0,0.4-0.1,0.3-0.3c0.5,0.3,1,0.6,1.6,0.8
					c0.1,0.1,0.2,0.2,0.3,0.2c1,0.3,2.1,0.3,3.1,0.1L84,89.3z"/>
				<path class="st48" d="M84,89.3L83.9,89l0.5-0.2c0.5-0.1,0.7-0.5,1-0.8c0.1,0.1,0.1,0.3,0.4,0.2c1.9,0,3.7,0,5.6,0
					c0.6,0,1-0.3,1-0.9c0-1.6,0-3.2,0-4.8c0.1-0.4-0.3-0.8-0.7-0.9c0,0,0,0,0,0c-1.3,0-2.5,0-3.8,0l0,0.5L87.5,82l-0.2-1l0.3,0
					c1.3,0,2.5,0,3.8,0c0.8,0,1.6,0.6,1.6,1.4c0,0.1,0,0.1,0,0.2c0,1.5,0,3.1,0,4.6c0,0.8-0.6,1.6-1.4,1.6c-0.1,0-0.1,0-0.2,0
					c-1.4,0-2.9,0-4.3,0C86,88.6,84.9,88.8,84,89.3z"/>
				<path class="st49" d="M92.7,103.7c0,0.7,0,1.4,0,2c0,1.2-0.4,1.6-1.6,1.6c-0.2,0-0.3,0-0.5,0c-0.7,0.1-1.4-0.4-1.5-1.1
					c0-0.1,0-0.3,0-0.4c0-1.4,0-2.9,0-4.3c0-0.8,0.6-1.5,1.4-1.5c0.1,0,0.1,0,0.2,0c1.8-0.1,2.2,0.5,2.1,2.1
					C92.7,102.6,92.7,103.1,92.7,103.7z M92.2,103.8c0-0.8,0-1.5,0-2.3c0-0.8-0.3-1-1-1c-0.3,0-0.5,0-0.8,0c-0.7,0-1,0.2-1,0.9
					c0,1.5,0,3,0,4.6c0,0.7,0.2,0.9,1,0.9c0.3,0,0.6,0,0.8,0c0.7,0,1-0.2,1-0.9C92.2,105.2,92.2,104.5,92.2,103.8z"/>
				<path class="st47" d="M81.7,83.6c0.4-1,0.4-2.2,0-3.2c0.1-0.1,0.1-0.1-0.1-0.1c0.1-0.4,0.3-0.1,0.4,0c0,0.3,0.1,0.5,0.2,0.7
					c0.4,0.2,0.8,0.1,1.1-0.3c0-0.1,0.1-0.1,0.1-0.2c0.2-0.8,0.9-1.4,1.7-1.5c0.2,0,0.4,0,0.6-0.1c0.3,0.3,0.8,0.3,1,0.7
					c0,0.1,0.2,0.3,0.3,0.2c0.1,0.1,0.2,0.3,0.3,0.5l-0.2,0.2L87,80.3c0-0.2-0.1-0.2-0.2-0.2c-0.1-0.1-0.2-0.3-0.4-0.4
					c-0.6-0.6-1.6-0.6-2.2,0c-0.2,0.2-0.3,0.4-0.4,0.7c-0.1,0.4-0.3,0.8-0.4,1.2c-0.4,0.2-0.4,0.4,0,0.6l0.1,0.1
					c0,0.7,0.4,1.4,1,1.8c0.7,0.6,1.7,0.5,2.3-0.2l0.4,0.1L87,84c-0.1,0-0.2,0-0.3,0.2c-0.2,0.2-0.5,0.4-0.8,0.4l-0.2,0.1
					c-1,0.1-2-0.5-2.4-1.4c0-0.2,0-0.3-0.2-0.4c-0.2-0.4-0.3-0.8-0.2-1.3c-0.2-0.1-0.4-0.1-0.6,0c-0.1,1.8-0.1,1.8-0.6,2.3
					L81.7,83.6z"/>
				<path class="st50" d="M80.2,99.2c-0.2,0-0.5,0-0.7,0c-0.6,0-1.1-0.5-1.1-1.1c0-0.5,0-1.1,0-1.6c0-0.7,0.6-1.2,1.2-1.2
					c0.4,0,0.7,0,1.1,0c0.7,0,1.3,0.5,1.3,1.2c0,0,0,0,0,0c0,0.5,0,1,0,1.5c-0.1,0.6-0.6,1.1-1.2,1.1C80.5,99.2,80.4,99.2,80.2,99.2
					z M80.1,95.8c-1.3,0-1.4,0.1-1.4,1.4v0.4c0,1,0.2,1.2,1.2,1.2c1.6,0,1.6,0,1.6-1.6C81.5,95.9,81.4,95.8,80.1,95.8z"/>
				<path class="st50" d="M81.9,103.4c0,0.3,0,0.5,0,0.8c0,0.6-0.5,1.1-1.2,1.1c-0.4,0-0.7,0-1.1,0c-0.7,0.1-1.3-0.5-1.4-1.2
					c0,0,0-0.1,0-0.1c0-0.4,0-0.8,0-1.2c0-0.7,0.5-1.3,1.3-1.3c0,0,0.1,0,0.1,0c0.3,0,0.5,0,0.8,0c0.7-0.1,1.3,0.4,1.5,1.1
					c0,0.1,0,0.2,0,0.4C82,103,82,103.2,81.9,103.4L81.9,103.4z M78.7,103.4L78.7,103.4c0,0.2,0,0.3,0,0.5c0,0.8,0.2,1,1,1
					c0.3,0,0.6,0,0.9,0c0.4,0.1,0.7-0.2,0.8-0.6c0,0,0-0.1,0-0.1c0-0.5,0-1.1,0-1.6c0-0.4-0.3-0.7-0.7-0.7c-0.1,0-0.1,0-0.2,0
					c-0.4,0-0.7,0-1.1,0c-0.6,0-0.8,0.2-0.8,0.8C78.7,102.9,78.7,103.2,78.7,103.4L78.7,103.4z"/>
				<path class="st51" d="M90.8,99.2c-0.3,0-0.6,0-0.9,0c-0.4-0.1-0.8-0.5-0.8-0.9c-0.1-0.6-0.1-1.2,0-1.8c0-0.3,0.2-0.7,0.5-0.8
					c0.7-0.4,1.6-0.5,2.4-0.2c0.6,0.2,0.8,0.8,0.8,1.5c0,0.1,0,0.3,0,0.4C92.7,98.9,92.3,99.2,90.8,99.2z M92.2,97.3
					c0-0.2,0-0.4,0-0.6c0-0.4-0.1-0.8-0.5-0.9c-0.7-0.2-1.4-0.1-2,0.2c-0.1,0.1-0.2,0.3-0.2,0.4c-0.1,0.6-0.1,1.2,0,1.8
					c0,0.4,0.4,0.6,0.8,0.6c0,0,0,0,0,0c0.3,0,0.6,0,1,0c0.7,0,0.9-0.2,1-0.9C92.2,97.7,92.2,97.5,92.2,97.3z"/>
				<path class="st51" d="M81.9,91.5c0,0.3,0,0.5,0,0.8c0,0.6-0.5,1.1-1,1.1c-0.1,0-0.2,0-0.3,0c-2.5,0.2-2.5-1-2.2-3
					c0.1-0.3,0.2-0.5,0.5-0.6c0.8-0.3,1.7-0.3,2.5,0C81.9,90.2,82.1,90.9,81.9,91.5z M78.7,91.5L78.7,91.5c0,0.2,0,0.4,0,0.6
					c0,0.6,0.3,1.1,1,1c0.3,0,0.6,0,0.9,0c0.4,0.1,0.8-0.2,0.8-0.6c0,0,0-0.1,0-0.1c0-0.5,0-1,0-1.5c0-0.6-0.3-0.8-0.9-0.8
					c-0.3,0-0.6,0-1,0c-0.4-0.1-0.8,0.3-0.9,0.7c0,0,0,0.1,0,0.1C78.7,91.1,78.7,91.3,78.7,91.5z"/>
				<path class="st51" d="M76.6,103.1c0.1,1.5-0.3,2.1-2,2.1c-1.3,0-1.7-0.4-1.6-1.6c-0.1-0.6,0-1.1,0.2-1.7
					c0.1-0.2,0.3-0.4,0.5-0.5c0.8-0.2,1.6-0.2,2.3,0.1c0.4,0.2,0.6,0.5,0.6,0.9C76.6,102.7,76.6,102.9,76.6,103.1z M76.2,103.2
					c-0.1-0.3,0.1-0.7-0.1-1.1c-0.7-0.5-1.6-0.6-2.4-0.2c-0.6,0.4-0.6,2.4,0,2.7c0.6,0.3,1.3,0.3,2,0
					C76.3,104.3,76.1,103.8,76.2,103.2L76.2,103.2z"/>
				<path class="st51" d="M74.7,99.2c-1.3,0.1-1.8-0.2-1.8-1.7c-0.1-0.6,0-1.2,0.3-1.7c0.1-0.2,0.3-0.3,0.5-0.4c0.7-0.1,1.4-0.1,2,0
					c0.5,0.1,0.8,0.5,0.8,1c0.1,0.6,0.1,1.2,0,1.8c-0.1,0.6-0.6,1-1.2,1C75.2,99.2,74.9,99.2,74.7,99.2z M73.2,97.3
					c0,1.4,0.1,1.5,1.5,1.5c0.2,0,0.3,0,0.5,0c0.5,0,0.9-0.4,0.9-0.9c0,0,0,0,0-0.1c0-0.3,0-0.6,0-0.9c0.1-0.4-0.2-0.8-0.6-1
					c-0.6-0.2-1.3-0.2-1.9,0c-0.2,0.1-0.4,0.4-0.4,0.6C73.2,96.8,73.2,97,73.2,97.3L73.2,97.3z"/>
				<path class="st51" d="M87.7,91.5c0,0.2,0,0.4,0,0.6c-0.1,0.6-0.3,1.3-1.2,1.3c-0.4,0-0.9,0-1.3,0c-0.6,0-1.1-0.5-1.1-1.1
					c-0.1-0.6-0.1-1.2,0-1.7c0.1-0.6,0.6-1,1.1-1.1c0.4,0,0.8,0,1.2,0c0.9,0.1,1.1,0.4,1.2,1.4C87.7,91.2,87.7,91.4,87.7,91.5z
					 M87.4,91.6c-0.1-0.4,0.2-1-0.3-1.3c-0.7-0.3-1.4-0.4-2.1-0.1c-0.4,0.1-0.5,0.6-0.5,1c0.1,0.6-0.3,1.4,0.5,1.8
					c0.7,0.3,1.4,0.3,2.1-0.1C87.5,92.6,87.3,92,87.4,91.6L87.4,91.6z"/>
				<path class="st51" d="M93,91.5c0,0.3,0,0.6,0,1c0,0.2-0.1,0.3-0.2,0.5c-0.3,0.7-1.8,0.6-2.6,0.5c-0.5-0.1-0.8-0.7-0.8-1.4
					c-0.1-0.7,0-1.3,0.3-1.9c0.1-0.1,0.1-0.2,0.3-0.3c0.8-0.3,1.7-0.3,2.5,0c0.7,0.3,0.7,1,0.6,1.6C93,91.4,93,91.5,93,91.5L93,91.5
					z M89.6,91.5c0,0.3,0,0.7,0.1,1c0.2,0.5,0.7,0.6,1.2,0.6c0.6,0,1.3,0.2,1.6-0.5c0.2-0.6,0.2-1.3,0-2c-0.1-0.4-0.5-0.6-0.9-0.5
					c-0.7,0.1-1.5-0.3-1.9,0.5C89.6,90.9,89.6,91.2,89.6,91.5z"/>
				<path class="st50" d="M87.4,97.3v0.6c0,0.9-0.4,1.3-1.3,1.3c-0.4,0-0.8,0-1.2,0c-0.6,0-1-0.5-1-1.1c0,0,0,0,0,0
					c0-0.5,0-1.1,0-1.6c-0.1-0.5,0.3-0.9,0.8-1c0.7-0.2,1.4-0.2,2,0c0.5,0.1,0.8,0.6,0.7,1.1C87.4,96.8,87.4,97.1,87.4,97.3z
					 M84.2,97.2c0,1.5,0.1,1.5,1.5,1.5c0,0,0.1,0,0.1,0c0.5,0.1,1-0.1,1.2-0.6c0.3-0.6,0.2-1.3-0.1-1.9c-0.7-0.5-1.6-0.6-2.3-0.3
					c-0.2,0.1-0.3,0.4-0.3,0.6C84.2,96.8,84.2,97,84.2,97.2L84.2,97.2z"/>
				<path class="st51" d="M87.4,103.4c0,0.2,0,0.5,0,0.7c0.1,0.5-0.2,0.9-0.7,1c0,0-0.1,0-0.1,0c-0.7,0.2-1.5,0.2-2.3-0.1
					c-0.3-0.2-0.5-0.5-0.5-0.9c0-0.5,0-1.1,0-1.6c-0.1-0.5,0.3-1,0.8-1c0.7-0.2,1.4-0.2,2.1,0.1c0.4,0.1,0.7,0.5,0.7,1
					C87.4,102.9,87.4,103.1,87.4,103.4z M87.1,103.4c0-0.5,0.2-1.1-0.5-1.4c-0.6-0.2-1.3-0.2-1.9,0c-0.4,0.1-0.5,0.6-0.4,1
					c0.1,0.6-0.3,1.4,0.4,1.7c0.6,0.3,1.3,0.3,1.9,0C87.2,104.5,87.1,104,87.1,103.4L87.1,103.4z"/>
				<path class="st52" d="M76.7,91.6c0,0.3,0,0.5,0,0.8c0,0.5-0.4,0.9-0.8,1c-0.6,0.1-1.3,0.2-1.9,0c-0.4,0-0.8-0.4-0.8-0.8
					c-0.1-0.7-0.1-1.4,0-2.1c0-0.4,0.3-0.8,0.8-0.9c0.7-0.2,1.4-0.2,2.1,0.1c0.4,0.1,0.7,0.5,0.7,0.9C76.7,91,76.7,91.3,76.7,91.6z
					 M73.4,91.5c0,1.4,0.1,1.6,1.6,1.6c0.1,0,0.2,0,0.3,0c0.4-0.1,0.9-0.1,1-0.7c0.2-0.7,0.1-1.5-0.2-2.1c0,0-0.1,0-0.1,0
					c-0.6-0.3-1.3-0.3-2-0.1c-0.3,0.1-0.5,0.4-0.5,0.7C73.4,91,73.4,91.3,73.4,91.5L73.4,91.5z"/>
				<path class="st41" d="M73.7,79.6c0.3,0,0.5,0,0.8,0c0.2,0,0.3,0,0.3,0.2c0,0.2-0.1,0.3-0.3,0.3c0,0,0,0,0,0c-0.5,0-1.1,0-1.6,0
					c-0.2,0-0.3-0.1-0.3-0.3s0.2-0.3,0.4-0.3C73.2,79.6,73.4,79.6,73.7,79.6z"/>
				<path class="st41" d="M78.3,79.9c0,0.1,0,0.1-0.1,0.2c-0.3,0-0.6,0-0.9,0c-0.2,0-0.4-0.1-0.4-0.3s0.2-0.3,0.4-0.3
					c0.4,0,0.7,0.1,1.1,0.1C78.4,79.6,78.3,79.7,78.3,79.9z"/>
				<path class="st47" d="M80.8,79.4c-0.6-0.4-1.3-0.3-1.9,0.2c0,0-0.1,0-0.2,0c0,0,0,0,0,0c-0.1-0.3,0.1-0.3,0.2-0.4
					c0.2-0.1,0.3-0.2,0.5-0.3c0.3,0.2,0.6,0.2,0.8,0.1c0.2,0.1,0.5,0.1,0.7,0.3C81,79.3,80.9,79.4,80.8,79.4z"/>
				<path class="st47" d="M78.3,79.9c0-0.2,0.1-0.3,0.1-0.4c0.1,0,0.2-0.1,0.3,0C78.7,79.8,78.7,80.1,78.3,79.9z"/>
				<path class="st47" d="M87.6,80.9l-0.3,0l-0.1-0.3l0.3,0L87.6,80.9z"/>
				<path class="st53" d="M87.5,80.6l-0.3,0c-0.1-0.1-0.1-0.1-0.1-0.2l0.2-0.2C87.4,80.3,87.5,80.5,87.5,80.6z"/>
				<path class="st53" d="M87,79.7c-0.2,0-0.3-0.1-0.3-0.2C86.8,79.5,87,79.5,87,79.7z"/>
				<path class="st53" d="M77.7,81l0,0.2c-0.1,0-0.1-0.1-0.1-0.2L77.7,81z"/>
				<path class="st42" d="M82,80.2c-0.1-0.1-0.3-0.3-0.4,0l0,0l-0.1-0.1c0.2,0.1,0.3,0,0.2-0.1c0-0.2-0.2-0.4-0.4-0.5
					c-0.1,0-0.2,0.1-0.1,0.2c-0.1,0-0.1-0.1-0.1-0.2c0.2,0.1,0.3,0,0.3-0.2h1.1c0.2,0,0.4,0,0.4,0.3s-0.2,0.3-0.4,0.4
					S82.2,80.1,82,80.2z"/>
				<path class="st53" d="M81.5,79.5c0,0.2,0,0.3-0.3,0.2c-0.2,0-0.3-0.1-0.4-0.3c0.1,0,0.2-0.1,0.3-0.2L81.5,79.5z"/>
				<path class="st42" d="M85.6,117.9c-0.7,0-1.4,0.3-1.8,0.8C84,117.9,85.1,117.4,85.6,117.9z"/>
				<path class="st54" d="M87,84c0,0,0.1-0.1,0.1-0.1v0c0.2-0.1,0.3-0.2,0.3-0.4l0.1-0.2c0.1-0.1,0.1-0.2,0.1-0.3
					c0.2-0.3,0.3-0.6,0.2-0.9l0-0.5c1.3,0,2.5,0,3.8,0c0.4,0,0.8,0.4,0.8,0.9c0,0,0,0,0,0c0,1.6,0,3.2,0,4.8c0,0.6-0.4,0.9-1,0.9
					c-1.9,0-3.7,0-5.6,0c-0.1-0.2,0.1-0.3,0.2-0.5c0.4-0.4,0.6-1,0.5-1.6c-0.3,0-0.5,0.2-0.6,0.4c-0.5,0.5-1.1,0.7-1.8,0.8
					c-0.8,0-1.7,0-2.5,0c-0.4,0-0.9-0.1-1.3-0.3c-0.6-0.4-1.3-0.5-1.9-0.9c-0.2,0.9,0,1.3,0.5,1.7l0,0l0,0c0.1,0.3-0.1,0.3-0.3,0.3
					c-1.5,0-3,0-4.5,0c-0.7,0-0.9-0.2-0.9-0.9c0-1.6,0-3.2,0-4.9c0-0.7,0.2-0.9,0.8-0.9c1.2,0,2.3,0,3.5,0c0.1,0.4,0.2,0.9,0.3,1.3
					l0,0c0,0.1,0,0.2,0.1,0.3c0.1,0.4,0.4,0.8,0.8,1.1c0,0.1,0.1,0.2,0.2,0.2c0,0,0,0,0.1,0l0.1,0.1c0,0.1,0,0.1,0.1,0.1
					c0.4,0.2,0.8,0.3,1.2,0.2c0.1,0.1,0.2,0,0.2-0.1c0,0,0,0,0,0c0.3-0.1,0.7-0.3,0.9-0.6c0.1,0,0.2-0.1,0.2-0.2
					c0.4-0.5,0.4-0.6,0.6-2.3c0.2-0.1,0.4-0.1,0.6,0c0,0.4,0,0.9,0.2,1.3c0,0.2,0,0.3,0.2,0.4c0.4,1,1.4,1.5,2.4,1.4
					c0.1,0,0.1,0,0.2-0.1c0.3,0,0.6-0.2,0.8-0.4C86.9,84.2,87,84.2,87,84z"/>
				<path class="st55" d="M77.8,82.8L77.8,82.8c0.5-0.2,0.1-0.6,0.1-0.8c0.2,0,0.2-0.2,0.2-0.3c0.2-0.6,0.7-0.9,1.3-0.7
					c0.1,0,0.2,0.1,0.3,0.1c-0.1,0.3-0.6,0.1-0.6,0.6c-0.4,0.1-0.6,0.5-0.5,0.9c0,0.1,0.1,0.2,0.1,0.3c0.1,0.2,0.3,0.4,0.6,0.3
					c0.3-0.1,0.5-0.2,0.5-0.5c0-0.2,0-0.4,0-0.5c0.1-0.2,0.2-0.4,0.3-0.5c0.2,0.4,0.3,0.8,0.2,1.3c-0.2,0.8-0.5,1-1.4,1l-0.3-0.1
					c-0.2-0.2-0.4-0.5-0.5-0.8l-0.1-0.2c0-0.1,0-0.1-0.1-0.2C77.9,82.7,77.9,82.8,77.8,82.8C77.9,82.9,77.9,82.8,77.8,82.8
					C77.9,82.8,77.9,82.8,77.8,82.8z"/>
				<path class="st56" d="M84.4,88.8L83.9,89c-1,0.2-2.1,0.2-3.1-0.1c-0.1,0-0.2-0.1-0.3-0.2c0.4-0.1,0.8-0.1,1-0.5h1.8
					C83.6,88.5,84.1,88.5,84.4,88.8z"/>
				<path class="st57" d="M81.5,88.2c-0.2,0.4-0.6,0.4-1,0.5c-0.5-0.2-1.1-0.5-1.6-0.8l0,0l0,0c0.1-0.3-0.2-0.6-0.1-0.9
					c0.4,0,0.6,0.4,0.9,0.4C80.1,87.9,80.8,88,81.5,88.2z"/>
				<path class="st53" d="M80.3,87c0.4,0.2,0.8,0.3,1.3,0.3c0.8,0,1.7,0,2.5,0c0.7-0.1,1.3-0.3,1.8-0.8c0.2-0.1,0.3-0.4,0.6-0.4
					c0,0.6-0.1,1.2-0.5,1.6c-0.1,0.1-0.3,0.2-0.2,0.5c-0.2,0.1-0.2-0.2-0.4-0.2c0-0.3,0.3-0.5,0.3-0.8c-0.4,0.1-0.6,0.4-1,0.5
					c-0.6,0-1.2,0.1-1.8,0.1c-1,0.1-2,0-2.9-0.4C80.1,87.2,80.2,87.1,80.3,87z"/>
				<path class="st57" d="M84.8,87.6c0.4-0.1,0.6-0.4,1-0.5c0,0.4-0.3,0.5-0.3,0.8c-0.3,0.3-0.5,0.7-1,0.8c-0.3-0.2-0.8-0.2-1.1-0.6
					C83.8,88.2,84.4,87.9,84.8,87.6z"/>
				<path class="st44" d="M87.3,83l0.2-1l0.4,0.1c0.1,0.3,0,0.7-0.2,0.9L87.3,83z"/>
				<path class="st58" d="M79.2,81.7c-0.1-0.4,0.4-0.3,0.6-0.6c0.3,0.1,0.5,0.3,0.4,0.6c-0.2,0.1-0.3,0.3-0.3,0.5l-0.2,0
					c0-0.1-0.1-0.2-0.2-0.1C79.3,81.9,79.2,81.8,79.2,81.7z"/>
				<path class="st47" d="M79.1,84.5L79,84.4c0-0.2,0.1-0.2,0.2-0.3c0.4,0.2,0.7,0.3,1.1,0.3l0.1,0.3c-0.4,0-0.9,0-1.2-0.2
					L79.1,84.5z"/>
				<path class="st47" d="M81.6,84.2c-0.3,0.3-0.6,0.5-0.9,0.6v-0.3l0.7-0.5C81.6,83.9,81.6,84,81.6,84.2z"/>
				<path class="st53" d="M79.2,84.1c-0.2,0-0.2,0.1-0.2,0.3c-0.1,0-0.2,0-0.2-0.1c0,0,0,0,0-0.1l0-0.4l0.3,0.1L79.2,84.1z"/>
				<path class="st53" d="M80.7,84.4v0.3c0,0.1-0.2,0.1-0.2,0.1c0,0,0,0,0,0l-0.1-0.3C80.4,84.4,80.6,84.3,80.7,84.4z"/>
				<path class="st53" d="M81.3,79.8c-0.1-0.1,0-0.3,0.1-0.2c0.2,0.1,0.4,0.2,0.4,0.5c0,0.2-0.1,0.2-0.2,0.1
					C81.5,80.1,81.4,80,81.3,79.8z"/>
				<path class="st53" d="M81.6,84.2c0-0.1,0-0.2-0.2-0.2c0-0.2,0.1-0.2,0.3-0.3l0.2,0.3C81.8,84,81.7,84.1,81.6,84.2z"/>
				<path class="st53" d="M81.7,80.3L81.7,80.3c0.1,0,0.1,0,0.1,0.1L81.7,80.3z"/>
				<path class="st59" d="M92.2,103.8c0,0.7,0,1.5,0,2.2c0,0.7-0.2,0.9-1,0.9c-0.3,0-0.6,0-0.8,0c-0.7,0-1-0.2-1-0.9
					c0-1.5,0-3,0-4.6c0-0.7,0.3-0.9,1-0.9c0.3,0,0.5,0,0.8,0c0.7,0,1,0.2,1,1C92.2,102.2,92.2,103,92.2,103.8z"/>
				<path class="st55" d="M83.4,82.2c0.1-0.2,0.2-0.4,0.2-0.6c0.1-0.4,0.4-0.6,0.7-0.7c0.4-0.1,0.8,0.1,1,0.4c0.5,0.7,0.5,1.6,0,2.3
					c-0.3,0.3-0.7,0.2-1,0.4C83.9,83.6,83.5,82.9,83.4,82.2z M85.2,82.1c0.1-0.3,0.3-0.6-0.1-0.8c-0.2-0.1-0.4,0-0.5,0.3
					c-0.5,0.2-0.7,0.5-0.5,1c0.1,0.3,0.3,0.7,0.7,0.5C85.3,83,85.3,82.5,85.2,82.1L85.2,82.1z"/>
				<path class="st44" d="M83.4,81.5l0,0.6C83,81.9,83.1,81.7,83.4,81.5z"/>
				<path class="st44" d="M83.4,83.2c-0.2,0-0.2-0.2-0.2-0.4C83.4,82.9,83.4,83.1,83.4,83.2z"/>
				<path class="st44" d="M86.8,83.8c0-0.2,0.1-0.2,0.3-0.2c0,0.1,0,0.2,0.1,0.3v0L86.8,83.8z"/>
				<path class="st44" d="M87,84c0,0.2-0.2,0.1-0.3,0.2C86.8,84.1,86.9,84,87,84z"/>
				<path class="st53" d="M87,80.3c-0.2,0-0.2-0.1-0.2-0.2C87,80.1,87,80.1,87,80.3z"/>
				<path class="st44" d="M86,84.6c0,0.1-0.1,0.1-0.2,0.1L86,84.6z"/>
				<path class="st60" d="M80.1,95.8c1.3,0,1.4,0.1,1.4,1.4c0,1.6,0,1.6-1.6,1.6c-1,0-1.2-0.2-1.2-1.2v-0.4
					C78.7,95.9,78.8,95.8,80.1,95.8z"/>
				<path class="st60" d="M78.7,103.4c0-0.2,0-0.5,0-0.7c0-0.6,0.3-0.8,0.8-0.8c0.4,0,0.7,0,1.1,0c0.4-0.1,0.7,0.2,0.8,0.5
					c0,0.1,0,0.1,0,0.2c0,0.5,0,1.1,0,1.6c0,0.4-0.3,0.7-0.7,0.7c0,0-0.1,0-0.1,0c-0.3,0-0.6,0-0.9,0c-0.8,0-1-0.2-1-1
					C78.7,103.7,78.7,103.6,78.7,103.4L78.7,103.4z"/>
				<path class="st61" d="M92.2,97.3c0,0.2,0,0.3,0,0.5c0,0.7-0.2,0.9-1,0.9c-0.3,0-0.6,0-1,0c-0.4,0.1-0.7-0.2-0.8-0.5c0,0,0,0,0,0
					c-0.1-0.6-0.1-1.2,0-1.8c0-0.1,0.1-0.3,0.2-0.4c0.6-0.3,1.4-0.3,2-0.2c0.5,0,0.5,0.5,0.5,0.9C92.2,96.9,92.2,97.1,92.2,97.3z"/>
				<path class="st54" d="M78.7,91.5c0-0.2,0-0.4,0-0.6c0-0.4,0.3-0.8,0.8-0.8c0,0,0.1,0,0.1,0c0.3,0,0.6,0,1,0
					c0.7,0,0.9,0.2,0.9,0.8c0,0.5,0,1,0,1.5c0,0.4-0.3,0.8-0.7,0.8c0,0-0.1,0-0.1,0c-0.3,0-0.6,0-0.9,0c-0.7,0.1-1-0.4-1-1
					C78.8,91.8,78.7,91.7,78.7,91.5L78.7,91.5z"/>
				<path class="st54" d="M76.2,103.2c0,0.6,0.1,1.2-0.5,1.4c-0.6,0.3-1.3,0.3-2,0c-0.6-0.3-0.6-2.3,0-2.7c0.8-0.3,1.7-0.2,2.4,0.2
					C76.3,102.4,76.1,102.9,76.2,103.2z"/>
				<path class="st54" d="M73.2,97.3c0-0.2,0-0.5,0-0.7c0-0.3,0.1-0.5,0.4-0.6c0.6-0.2,1.3-0.2,1.9,0c0.4,0.1,0.7,0.5,0.6,1
					c0,0.3,0,0.6,0,0.9c0,0.5-0.4,1-0.9,1c0,0,0,0-0.1,0c-0.2,0-0.3,0-0.5,0C73.3,98.8,73.2,98.7,73.2,97.3z"/>
				<path class="st61" d="M87.4,91.6c0,0.5,0.2,1-0.4,1.3c-0.6,0.3-1.4,0.4-2.1,0.1c-0.8-0.3-0.4-1.1-0.5-1.8c0-0.4,0.1-0.9,0.5-1
					c0.7-0.3,1.5-0.2,2.1,0.1C87.6,90.6,87.3,91.1,87.4,91.6z"/>
				<path class="st54" d="M89.6,91.5c0-0.3,0-0.6,0.1-0.9c0.4-0.8,1.2-0.4,1.9-0.5c0.4-0.1,0.8,0.2,0.9,0.5c0.2,0.6,0.2,1.3,0,2
					c-0.3,0.8-1,0.5-1.6,0.5c-0.5,0-1,0-1.2-0.6C89.6,92.2,89.6,91.8,89.6,91.5z"/>
				<path class="st62" d="M84.2,97.2c0-0.2,0-0.5,0-0.7c0-0.3,0.1-0.5,0.3-0.6c0.8-0.3,1.7-0.2,2.3,0.3c0.3,0.6,0.4,1.3,0.1,1.9
					c-0.2,0.5-0.7,0.7-1.2,0.6c0,0-0.1,0-0.1,0C84.3,98.8,84.2,98.7,84.2,97.2z"/>
				<path class="st62" d="M87.1,103.4c0,0.5,0.1,1.1-0.5,1.3c-0.6,0.3-1.3,0.3-1.9,0c-0.7-0.4-0.4-1.1-0.4-1.7c0-0.4,0-0.9,0.4-1
					c0.6-0.2,1.3-0.2,1.9,0C87.2,102.3,87.1,102.9,87.1,103.4z"/>
				<path class="st59" d="M73.4,91.5c0-0.2,0-0.5,0-0.7c0-0.3,0.2-0.6,0.5-0.7c0.7-0.2,1.4-0.1,2,0.1c0,0,0.1,0,0.1,0
					c0.4,0.6,0.4,1.4,0.2,2.1c-0.1,0.5-0.6,0.6-1,0.7c-0.1,0-0.2,0-0.3,0C73.6,93.1,73.4,92.9,73.4,91.5z"/>
				<path class="st44" d="M80.3,87c-0.1,0-0.2,0.1-0.2,0.3h-0.5c-0.3,0-0.5-0.4-0.9-0.4c-0.1,0.3,0.2,0.6,0.1,0.9
					c-0.5-0.3-0.7-0.8-0.5-1.7C79,86.5,79.7,86.6,80.3,87z"/>
				<path class="st47" d="M78.8,83.8l0,0.4c-0.4-0.3-0.7-0.6-0.8-1.1l0.3,0C78.4,83.4,78.6,83.6,78.8,83.8z"/>
				<path class="st47" d="M87.2,83.9c-0.1-0.1-0.1-0.2-0.1-0.3l0.1-0.1l0.3,0C87.4,83.6,87.3,83.8,87.2,83.9z"/>
				<path class="st47" d="M87.3,83h0.4c0,0.1-0.1,0.2-0.1,0.3l-0.3,0L87.3,83z"/>
				<path class="st44" d="M87.2,83.2l0.3,0l-0.1,0.2l-0.3,0C87.1,83.3,87.1,83.3,87.2,83.2z"/>
				<path class="st53" d="M78.3,83.1l-0.3,0c-0.1-0.1-0.1-0.2-0.1-0.3c0,0,0,0,0,0c0,0,0,0,0,0h0.3L78.3,83.1z"/>
				<path class="st53" d="M79.1,84.5l0.1,0.1C79.1,84.6,79.1,84.5,79.1,84.5z"/>
				<path class="st39" d="M79.2,81.7c0,0.2,0.1,0.3,0.2,0.3c0,0.1,0.1,0.2,0.2,0.1l0.2,0c0,0.2,0,0.4,0,0.5c0,0.3-0.3,0.4-0.5,0.5
					c-0.2,0-0.5-0.1-0.6-0.3c-0.3-0.3-0.2-0.8,0.1-1.1C79,81.7,79.1,81.7,79.2,81.7z"/>
				<path class="st47" d="M78.2,82.9h-0.3c0-0.1,0-0.2,0.2-0.2C78.1,82.7,78.2,82.8,78.2,82.9z"/>
				<path class="st58" d="M79.6,87.3h0.5c0.9,0.4,1.9,0.5,2.9,0.4c0.6,0,1.2-0.1,1.8-0.1c-0.4,0.4-0.9,0.6-1.5,0.6h-1.8
					C80.8,88,80.1,87.9,79.6,87.3z"/>
				<path class="st55" d="M79.7,82.1c-0.2,0.1-0.2,0-0.2-0.1C79.6,82,79.7,82,79.7,82.1z"/>
				<path class="st39" d="M85.2,82.1c0.1,0.4,0.1,0.8-0.4,1c-0.4,0.2-0.6-0.2-0.7-0.5c-0.2-0.5,0-0.8,0.5-1
					C84.7,81.9,84.9,82.1,85.2,82.1z"/>
				<path class="st58" d="M85.2,82.1c-0.3,0-0.5-0.2-0.6-0.5c0.1-0.3,0.3-0.4,0.5-0.3C85.5,81.6,85.3,81.9,85.2,82.1z"/>
			</g>
		</g>
	</g>
</g>
</svg>
